<svg width="25" height="25" viewBox="0 0 25 25" fill="none" xmlns="http://www.w3.org/2000/svg">
<g clip-path="url(#clip0)">
<path fill-rule="evenodd" clip-rule="evenodd" d="M23.3972 0.5C24.0599 0.5 24.5972 1.03726 24.5972 1.7V23.3C24.5972 23.9628 24.0599 24.5 23.3972 24.5H1.79717C1.13443 24.5 0.597168 23.9628 0.597168 23.3V1.7C0.597168 1.03726 1.13443 0.5 1.79717 0.5H23.3972ZM21.5972 2.3C22.2599 2.3 22.7972 2.83726 22.7972 3.5V21.5C22.7972 22.1628 22.2599 22.7 21.5972 22.7H3.59717C2.93443 22.7 2.39717 22.1628 2.39717 21.5V3.5C2.39717 2.83726 2.93443 2.3 3.59717 2.3H21.5972ZM12.3079 13.6796L13.1489 10.3733C13.1489 10.3657 13.1528 10.3618 13.1604 10.3618C13.1681 10.3618 13.172 10.3657 13.172 10.3733L14.0129 13.6796C14.0206 13.7026 14.0129 13.7257 13.9899 13.7487C13.9745 13.7641 13.9553 13.7718 13.9323 13.7718H12.3886C12.3655 13.7718 12.3425 13.7641 12.3195 13.7487C12.3041 13.7257 12.3003 13.7026 12.3079 13.6796ZM9.68138 16.8822C9.78122 17.0127 9.91178 17.078 10.0731 17.078H10.7988C10.9908 17.078 11.1636 17.0204 11.3172 16.9052C11.4708 16.7823 11.5707 16.6287 11.6167 16.4444L11.8932 15.35C11.9086 15.2886 11.947 15.2578 12.0084 15.2578H14.3124C14.3816 15.2578 14.42 15.2886 14.4276 15.35L14.7041 16.4444C14.7502 16.6287 14.85 16.7823 15.0036 16.9052C15.1572 17.0204 15.33 17.078 15.522 17.078H16.2939C16.4552 17.078 16.5819 17.0127 16.674 16.8822C16.7739 16.7516 16.7969 16.6095 16.7432 16.4559L14.4276 9.29046C14.3739 9.10614 14.2664 8.95638 14.1051 8.84118C13.9438 8.72598 13.7633 8.66838 13.5636 8.66838H12.8033C12.6113 8.66838 12.4347 8.72598 12.2734 8.84118C12.1198 8.95638 12.0123 9.10614 11.9508 9.29046L9.62378 16.4559C9.57002 16.6095 9.58922 16.7516 9.68138 16.8822Z" fill="white"/>
</g>
<defs>
<clipPath id="clip0">
<rect width="24" height="24" fill="white" transform="translate(0.597168 0.5)"/>
</clipPath>
</defs>
</svg>
