<svg width="25" height="25" viewBox="0 0 25 25" fill="none" xmlns="http://www.w3.org/2000/svg">
<g clip-path="url(#clip0)">
<path fill-rule="evenodd" clip-rule="evenodd" d="M23.5191 0.5C24.1819 0.5 24.7191 1.03726 24.7191 1.7V23.3C24.7191 23.9628 24.1819 24.5 23.5191 24.5H1.91912C1.25638 24.5 0.719116 23.9628 0.719116 23.3V1.7C0.719116 1.03726 1.25637 0.5 1.91912 0.5H23.5191ZM21.7191 2.3C22.3819 2.3 22.9191 2.83726 22.9191 3.5V21.5C22.9191 22.1628 22.3819 22.7 21.7191 22.7H3.71912C3.05638 22.7 2.51912 22.1628 2.51912 21.5V3.5C2.51912 2.83726 3.05638 2.3 3.71912 2.3H21.7191ZM12.1995 15.5343V13.5068C12.1995 13.4377 12.2302 13.4031 12.2917 13.4031H12.741C13.893 13.4031 14.469 13.7564 14.469 14.463C14.469 14.8854 14.3422 15.2002 14.0888 15.4076C13.8354 15.6073 13.436 15.7071 12.8907 15.7071C12.6603 15.7071 12.4645 15.6918 12.3032 15.661C12.2341 15.6457 12.1995 15.6034 12.1995 15.5343ZM12.1995 11.9055V10.2121C12.1995 10.1429 12.2302 10.1007 12.2917 10.0853C12.4453 10.0546 12.6334 10.0393 12.8562 10.0393C13.7931 10.0393 14.2616 10.358 14.2616 10.9954C14.2616 11.6636 13.701 11.9977 12.5797 11.9977H12.2917C12.2302 11.9977 12.1995 11.9669 12.1995 11.9055ZM10.46 16.8591C10.5829 17.005 10.7365 17.0857 10.9208 17.101C11.5736 17.1625 12.2033 17.1932 12.8101 17.1932C14.0158 17.1932 14.899 16.9858 15.4597 16.5711C16.028 16.1487 16.3122 15.5113 16.3122 14.6588C16.3122 14.1366 16.1317 13.6873 15.7707 13.311C15.4174 12.9346 14.9374 12.7042 14.3307 12.6198C14.3154 12.6198 14.3077 12.6159 14.3077 12.6082C14.3077 12.5929 14.3115 12.5852 14.3192 12.5852C14.8414 12.493 15.2562 12.278 15.5634 11.9401C15.8782 11.6021 16.0357 11.1913 16.0357 10.7074C16.0357 9.27126 14.9221 8.55318 12.6949 8.55318C12.1189 8.55318 11.5313 8.5839 10.9323 8.64534C10.748 8.6607 10.5905 8.74134 10.46 8.88726C10.3371 9.0255 10.2757 9.19062 10.2757 9.38262V16.3638C10.2757 16.5481 10.3371 16.7132 10.46 16.8591Z" fill="white"/>
</g>
<defs>
<clipPath id="clip0">
<rect width="24" height="24" fill="white" transform="translate(0.719116 0.5)"/>
</clipPath>
</defs>
</svg>
