<svg width="25" height="25" viewBox="0 0 25 25" fill="none" xmlns="http://www.w3.org/2000/svg">
<path fill-rule="evenodd" clip-rule="evenodd" d="M12.0609 2.49005C17.5893 2.49005 22.0709 6.97168 22.0709 12.5C22.0709 18.0284 17.5893 22.51 12.0609 22.51C6.53253 22.51 2.0509 18.0284 2.0509 12.5C2.0509 6.97168 6.53253 2.49005 12.0609 2.49005ZM12.0609 4.25652C16.6137 4.25652 20.3044 7.94727 20.3044 12.5C20.3044 17.0528 16.6137 20.7435 12.0609 20.7435C7.50812 20.7435 3.81737 17.0528 3.81737 12.5C3.81737 7.94727 7.50812 4.25652 12.0609 4.25652Z" fill="white"/>
<path d="M7.85638 21.1976H7.85638C7.36858 21.1976 6.97314 20.8021 6.97314 20.3143V4.81021C6.97314 4.32241 7.36858 3.92697 7.85638 3.92697C8.34417 3.92697 8.73961 4.32241 8.73961 4.81021V20.3143C8.73961 20.8021 8.34417 21.1976 7.85638 21.1976Z" fill="white"/>
<path d="M7.59769 12.0636L7.59768 12.0636C7.25276 12.4085 7.25276 12.9677 7.59768 13.3127L14.8581 20.573C15.203 20.918 15.7622 20.918 16.1071 20.573C16.4521 20.2281 16.4521 19.6689 16.1071 19.3239L8.84677 12.0636C8.50184 11.7186 7.94261 11.7186 7.59769 12.0636Z" fill="white"/>
<path d="M3.73468 11.6168C3.24688 11.6168 2.85144 12.0122 2.85144 12.5C2.85144 12.9878 3.24688 13.3832 3.73468 13.3832H6.97317V11.6168H3.73468Z" fill="white"/>
<path d="M16.9903 4.24924L16.9903 4.24924C17.3353 4.59416 17.3353 5.1534 16.9903 5.49832L9.72994 12.7587C9.38501 13.1036 8.82578 13.1036 8.48085 12.7587C8.13593 12.4138 8.13593 11.8545 8.48086 11.5096L15.7412 4.24924C16.0862 3.90431 16.6454 3.90431 16.9903 4.24924Z" fill="white"/>
<path d="M16.9903 4.24924L16.9903 4.24924C17.3353 4.59416 17.3353 5.1534 16.9903 5.49832L9.72994 12.7587C9.38501 13.1036 8.82578 13.1036 8.48085 12.7587C8.13593 12.4138 8.13593 11.8545 8.48086 11.5096L15.7412 4.24924C16.0862 3.90431 16.6454 3.90431 16.9903 4.24924Z" fill="white"/>
<path d="M16.9903 4.24924L16.9903 4.24924C17.3353 4.59416 17.3353 5.1534 16.9903 5.49832L9.72994 12.7587C9.38501 13.1036 8.82578 13.1036 8.48085 12.7587C8.13593 12.4138 8.13593 11.8545 8.48086 11.5096L15.7412 4.24924C16.0862 3.90431 16.6454 3.90431 16.9903 4.24924Z" fill="white"/>
<path d="M12.7953 11.1675L12.7953 11.1675C12.9216 11.6387 12.642 12.123 12.1708 12.2492L9.32699 13.0112C8.85582 13.1375 8.37151 12.8579 8.24526 12.3867C8.11901 11.9155 8.39862 11.4312 8.8698 11.3049L11.7136 10.5429C12.1848 10.4167 12.6691 10.6963 12.7953 11.1675Z" fill="white"/>
<path d="M12.7953 11.1675L12.7953 11.1675C12.9216 11.6387 12.642 12.123 12.1708 12.2492L9.32699 13.0112C8.85582 13.1375 8.37151 12.8579 8.24526 12.3867C8.11901 11.9155 8.39862 11.4312 8.8698 11.3049L11.7136 10.5429C12.1848 10.4167 12.6691 10.6963 12.7953 11.1675Z" fill="white"/>
<path d="M12.7953 11.1675L12.7953 11.1675C12.9216 11.6387 12.642 12.123 12.1708 12.2492L9.32699 13.0112C8.85582 13.1375 8.37151 12.8579 8.24526 12.3867C8.11901 11.9155 8.39862 11.4312 8.8698 11.3049L11.7136 10.5429C12.1848 10.4167 12.6691 10.6963 12.7953 11.1675Z" fill="white"/>
<path d="M8.86974 13.0112L8.86974 13.0112C8.39856 12.8849 8.11895 12.4006 8.2452 11.9295L9.00719 9.08566C9.13344 8.61448 9.61775 8.33487 10.0889 8.46112C10.5601 8.58737 10.8397 9.07168 10.7135 9.54286L9.95148 12.3867C9.82523 12.8578 9.34092 13.1374 8.86974 13.0112Z" fill="white"/>
<path d="M8.86974 13.0112L8.86974 13.0112C8.39856 12.8849 8.11895 12.4006 8.2452 11.9295L9.00719 9.08566C9.13344 8.61448 9.61775 8.33487 10.0889 8.46112C10.5601 8.58737 10.8397 9.07168 10.7135 9.54286L9.95148 12.3867C9.82523 12.8578 9.34092 13.1374 8.86974 13.0112Z" fill="white"/>
<path d="M8.86974 13.0112L8.86974 13.0112C8.39856 12.8849 8.11895 12.4006 8.2452 11.9295L9.00719 9.08566C9.13344 8.61448 9.61775 8.33487 10.0889 8.46112C10.5601 8.58737 10.8397 9.07168 10.7135 9.54286L9.95148 12.3867C9.82523 12.8578 9.34092 13.1374 8.86974 13.0112Z" fill="white"/>
</svg>
