<svg width="25" height="25" viewBox="0 0 25 25" fill="none" xmlns="http://www.w3.org/2000/svg">
<path fill-rule="evenodd" clip-rule="evenodd" d="M12.183 22.1776C17.7113 22.1776 22.1929 17.696 22.1929 12.1677C22.1929 6.63943 17.7113 2.15784 12.183 2.15784C6.65469 2.15784 2.1731 6.63943 2.1731 12.1677C2.1731 17.696 6.65469 22.1776 12.183 22.1776ZM12.183 20.4112C16.7357 20.4112 20.4265 16.7204 20.4265 12.1677C20.4265 7.61502 16.7357 3.9243 12.183 3.9243C7.63028 3.9243 3.93956 7.61502 3.93956 12.1677C3.93956 16.7204 7.63028 20.4112 12.183 20.4112Z" fill="white"/>
<path d="M8.8616 4.3535C8.8616 3.86571 8.46617 3.47028 7.97838 3.47028C7.49059 3.47028 7.09515 3.86571 7.09515 4.3535V19.8575C7.09515 20.3453 7.49059 20.7408 7.97838 20.7408C8.46617 20.7408 8.8616 20.3453 8.8616 19.8575V4.3535Z" fill="white"/>
<path d="M8.96876 11.3551C8.62384 11.0102 8.06461 11.0102 7.71969 11.3551C7.37477 11.7001 7.37477 12.2593 7.71969 12.6042L14.98 19.8645C15.3249 20.2095 15.8842 20.2095 16.2291 19.8645C16.574 19.5196 16.574 18.9604 16.2291 18.6155L8.96876 11.3551Z" fill="white"/>
<path d="M8.96876 11.3551C8.62384 11.0102 8.06461 11.0102 7.71969 11.3551C7.37477 11.7001 7.37477 12.2593 7.71969 12.6042L14.98 19.8645C15.3249 20.2095 15.8842 20.2095 16.2291 19.8645C16.574 19.5196 16.574 18.9604 16.2291 18.6155L8.96876 11.3551Z" fill="white"/>
<path d="M8.96876 11.3551C8.62384 11.0102 8.06461 11.0102 7.71969 11.3551C7.37477 11.7001 7.37477 12.2593 7.71969 12.6042L14.98 19.8645C15.3249 20.2095 15.8842 20.2095 16.2291 19.8645C16.574 19.5196 16.574 18.9604 16.2291 18.6155L8.96876 11.3551Z" fill="white"/>
<path d="M12.9965 17.6487C12.5254 17.5225 12.0411 17.8021 11.9148 18.2733C11.7886 18.7444 12.0682 19.2288 12.5393 19.355L15.3831 20.117C15.8543 20.2432 16.3386 19.9636 16.4648 19.4925C16.5911 19.0213 16.3115 18.537 15.8403 18.4107L12.9965 17.6487Z" fill="white"/>
<path d="M12.9965 17.6487C12.5254 17.5225 12.0411 17.8021 11.9148 18.2733C11.7886 18.7444 12.0682 19.2288 12.5393 19.355L15.3831 20.117C15.8543 20.2432 16.3386 19.9636 16.4648 19.4925C16.5911 19.0213 16.3115 18.537 15.8403 18.4107L12.9965 17.6487Z" fill="white"/>
<path d="M12.9965 17.6487C12.5254 17.5225 12.0411 17.8021 11.9148 18.2733C11.7886 18.7444 12.0682 19.2288 12.5393 19.355L15.3831 20.117C15.8543 20.2432 16.3386 19.9636 16.4648 19.4925C16.5911 19.0213 16.3115 18.537 15.8403 18.4107L12.9965 17.6487Z" fill="white"/>
<path d="M14.7585 19.4924C14.8848 19.9636 15.3691 20.2432 15.8402 20.117C16.3114 19.9907 16.591 19.5064 16.4648 19.0352L15.7028 16.1915C15.5765 15.7203 15.0922 15.4407 14.6211 15.5669C14.1499 15.6932 13.8703 16.1775 13.9965 16.6487L14.7585 19.4924Z" fill="white"/>
<path d="M14.7585 19.4924C14.8848 19.9636 15.3691 20.2432 15.8402 20.117C16.3114 19.9907 16.591 19.5064 16.4648 19.0352L15.7028 16.1915C15.5765 15.7203 15.0922 15.4407 14.6211 15.5669C14.1499 15.6932 13.8703 16.1775 13.9965 16.6487L14.7585 19.4924Z" fill="white"/>
<path d="M14.7585 19.4924C14.8848 19.9636 15.3691 20.2432 15.8402 20.117C16.3114 19.9907 16.591 19.5064 16.4648 19.0352L15.7028 16.1915C15.5765 15.7203 15.0922 15.4407 14.6211 15.5669C14.1499 15.6932 13.8703 16.1775 13.9965 16.6487L14.7585 19.4924Z" fill="white"/>
<path d="M8.96876 12.6042C8.62384 12.9491 8.06461 12.9491 7.71969 12.6042C7.37477 12.2593 7.37477 11.7001 7.71969 11.3551L14.98 4.09482C15.3249 3.74989 15.8842 3.74989 16.2291 4.09481C16.574 4.43974 16.574 4.99896 16.2291 5.34389L8.96876 12.6042Z" fill="white"/>
<path d="M3.85674 13.051C3.36894 13.051 2.97351 12.6556 2.97351 12.1678C2.97351 11.68 3.36894 11.2846 3.85674 11.2846H7.0952V13.051H3.85674Z" fill="white"/>
</svg>
