<svg width="25" height="25" viewBox="0 0 25 25" fill="none" xmlns="http://www.w3.org/2000/svg">
<path fill-rule="evenodd" clip-rule="evenodd" d="M12.4509 2.02966C17.9752 2.02966 22.4536 6.50801 22.4536 12.0323C22.4536 17.5566 17.9752 22.035 12.4509 22.035C6.92654 22.035 2.44818 17.5566 2.44818 12.0323C2.44818 6.50801 6.92654 2.02966 12.4509 2.02966ZM12.4509 3.79484C17.0003 3.79484 20.6884 7.48289 20.6884 12.0323C20.6884 16.5817 17.0003 20.2698 12.4509 20.2698C7.90142 20.2698 4.21336 16.5817 4.21336 12.0323C4.21336 7.48289 7.90142 3.79484 12.4509 3.79484Z" fill="white"/>
<path d="M9.13206 16.7684C9.13206 17.2558 8.73691 17.6509 8.24947 17.6509C7.76203 17.6509 7.36688 17.2558 7.36688 16.7684V4.34813C7.36688 3.86069 7.76203 3.46554 8.24947 3.46554C8.73691 3.46554 9.13206 3.86069 9.13206 4.34813V16.7684Z" fill="white"/>
<path d="M17.7046 19.4286C17.7046 19.916 17.3094 20.3112 16.822 20.3112C16.3345 20.3112 15.9394 19.916 15.9394 19.4286V12.2417C15.9394 11.7542 16.3345 11.3591 16.822 11.3591C17.3094 11.3591 17.7046 11.7542 17.7046 12.2417V19.4286Z" fill="white"/>
<path d="M17.7046 7.5839C17.7046 8.07134 17.3094 8.46649 16.822 8.46649C16.3345 8.46649 15.9394 8.07134 15.9394 7.5839V4.34816C15.9394 3.86072 16.3345 3.46557 16.822 3.46557C17.3094 3.46557 17.7046 3.86072 17.7046 4.34816V7.5839Z" fill="white"/>
<path d="M11.8745 18.0888C11.8745 18.5763 11.4793 18.9714 10.9919 18.9714C10.5045 18.9714 10.1093 18.5763 10.1093 18.0888V6.40703C10.1093 5.91959 10.5045 5.52444 10.9919 5.52444C11.4793 5.52444 11.8745 5.91959 11.8745 6.40703V18.0888Z" fill="white"/>
<path d="M11.4984 11.2002C11.0109 11.2002 10.6158 11.5953 10.6158 12.0827C10.6158 12.5702 11.0109 12.9653 11.4984 12.9653H16.822C17.3094 12.9653 17.7045 12.5702 17.7045 12.0827C17.7045 11.5953 17.3094 11.2002 16.822 11.2002H11.4984Z" fill="white"/>
<path d="M11.4984 11.2002C11.0109 11.2002 10.6158 11.5953 10.6158 12.0827C10.6158 12.5702 11.0109 12.9653 11.4984 12.9653H16.822C17.3094 12.9653 17.7045 12.5702 17.7045 12.0827C17.7045 11.5953 17.3094 11.2002 16.822 11.2002H11.4984Z" fill="white"/>
<path d="M11.4984 11.2002C11.0109 11.2002 10.6158 11.5953 10.6158 12.0827C10.6158 12.5702 11.0109 12.9653 11.4984 12.9653H16.822C17.3094 12.9653 17.7045 12.5702 17.7045 12.0827C17.7045 11.5953 17.3094 11.2002 16.822 11.2002H11.4984Z" fill="white"/>
<path d="M16.8221 6.70131C17.3095 6.70131 17.7047 7.09646 17.7047 7.5839C17.7047 8.07134 17.3095 8.46649 16.8221 8.46649L11.8745 8.46649C11.387 8.46649 10.9919 8.07134 10.9919 7.5839C10.9919 7.09646 11.387 6.70131 11.8745 6.70131L16.8221 6.70131Z" fill="white"/>
<path d="M16.8221 6.70131C17.3095 6.70131 17.7047 7.09646 17.7047 7.5839C17.7047 8.07134 17.3095 8.46649 16.8221 8.46649L11.8745 8.46649C11.387 8.46649 10.9919 8.07134 10.9919 7.5839C10.9919 7.09646 11.387 6.70131 11.8745 6.70131L16.8221 6.70131Z" fill="white"/>
<path d="M16.8221 6.70131C17.3095 6.70131 17.7047 7.09646 17.7047 7.5839C17.7047 8.07134 17.3095 8.46649 16.8221 8.46649L11.8745 8.46649C11.387 8.46649 10.9919 8.07134 10.9919 7.5839C10.9919 7.09646 11.387 6.70131 11.8745 6.70131L16.8221 6.70131Z" fill="white"/>
<path d="M16.2916 16.0296C16.779 16.0296 17.1742 16.4247 17.1742 16.9121C17.1742 17.3996 16.779 17.7947 16.2916 17.7947L11.4985 17.7947C11.011 17.7947 10.6159 17.3996 10.6159 16.9121C10.6159 16.4247 11.011 16.0296 11.4985 16.0296L16.2916 16.0296Z" fill="white"/>
<path d="M16.2916 16.0296C16.779 16.0296 17.1742 16.4247 17.1742 16.9121C17.1742 17.3996 16.779 17.7947 16.2916 17.7947L11.4985 17.7947C11.011 17.7947 10.6159 17.3996 10.6159 16.9121C10.6159 16.4247 11.011 16.0296 11.4985 16.0296L16.2916 16.0296Z" fill="white"/>
<path d="M16.2916 16.0296C16.779 16.0296 17.1742 16.4247 17.1742 16.9121C17.1742 17.3996 16.779 17.7947 16.2916 17.7947L11.4985 17.7947C11.011 17.7947 10.6159 17.3996 10.6159 16.9121C10.6159 16.4247 11.011 16.0296 11.4985 16.0296L16.2916 16.0296Z" fill="white"/>
<path d="M13.5877 14.0069L13.5877 14.0069C13.8281 14.429 14.363 14.5723 14.7823 14.327L17.2857 12.862C17.705 12.6166 17.8499 12.0755 17.6095 11.6533L17.6095 11.6533C17.369 11.2312 16.8342 11.0879 16.4149 11.3333L13.9115 12.7983C13.4922 13.0436 13.3472 13.5848 13.5877 14.0069Z" fill="white"/>
<path d="M13.5877 14.0069L13.5877 14.0069C13.8281 14.429 14.363 14.5723 14.7823 14.327L17.2857 12.862C17.705 12.6166 17.8499 12.0755 17.6095 11.6533L17.6095 11.6533C17.369 11.2312 16.8342 11.0879 16.4149 11.3333L13.9115 12.7983C13.4922 13.0436 13.3472 13.5848 13.5877 14.0069Z" fill="white"/>
<path d="M13.5877 14.0069L13.5877 14.0069C13.8281 14.429 14.363 14.5723 14.7823 14.327L17.2857 12.862C17.705 12.6166 17.8499 12.0755 17.6095 11.6533L17.6095 11.6533C17.369 11.2312 16.8342 11.0879 16.4149 11.3333L13.9115 12.7983C13.4922 13.0436 13.3472 13.5848 13.5877 14.0069Z" fill="white"/>
<path d="M17.6096 12.5359L17.6096 12.5359C17.8501 12.1138 17.7051 11.5726 17.2858 11.3273L14.7824 9.86226C14.3631 9.61689 13.8283 9.76018 13.5878 10.1823L13.5878 10.1823C13.3474 10.6045 13.4924 11.1456 13.9116 11.391L16.415 12.856C16.8343 13.1013 17.3692 12.958 17.6096 12.5359Z" fill="white"/>
<path d="M17.6096 12.5359L17.6096 12.5359C17.8501 12.1138 17.7051 11.5726 17.2858 11.3273L14.7824 9.86226C14.3631 9.61689 13.8283 9.76018 13.5878 10.1823L13.5878 10.1823C13.3474 10.6045 13.4924 11.1456 13.9116 11.391L16.415 12.856C16.8343 13.1013 17.3692 12.958 17.6096 12.5359Z" fill="white"/>
<path d="M17.6096 12.5359L17.6096 12.5359C17.8501 12.1138 17.7051 11.5726 17.2858 11.3273L14.7824 9.86226C14.3631 9.61689 13.8283 9.76018 13.5878 10.1823L13.5878 10.1823C13.3474 10.6045 13.4924 11.1456 13.9116 11.391L16.415 12.856C16.8343 13.1013 17.3692 12.958 17.6096 12.5359Z" fill="white"/>
<path d="M4.78609 15.8857C4.29865 15.8857 3.9035 16.2809 3.9035 16.7683C3.9035 17.2557 4.29865 17.6509 4.78609 17.6509H8.24941C8.73685 17.6509 9.132 17.2557 9.132 16.7683C9.132 16.2809 8.73685 15.8857 8.24941 15.8857H4.78609Z" fill="white"/>
</svg>
