<svg width="25" height="25" viewBox="0 0 25 25" fill="none" xmlns="http://www.w3.org/2000/svg">
<path fill-rule="evenodd" clip-rule="evenodd" d="M12.3289 2.02692C17.8547 2.02692 22.3343 6.5065 22.3343 12.0323C22.3343 17.5581 17.8547 22.0377 12.3289 22.0377C6.80307 22.0377 2.32349 17.5581 2.32349 12.0323C2.32349 6.5065 6.80307 2.02692 12.3289 2.02692ZM12.3289 3.79258C16.8796 3.79258 20.5687 7.48164 20.5687 12.0323C20.5687 16.583 16.8796 20.272 12.3289 20.272C7.77821 20.272 4.08915 16.583 4.08915 12.0323C4.08915 7.48164 7.77821 3.79258 12.3289 3.79258Z" fill="white"/>
<path d="M9.00913 16.7696C9.00913 17.2572 8.61387 17.6525 8.1263 17.6525C7.63873 17.6525 7.24347 17.2572 7.24347 16.7696V4.3461C7.24347 3.85852 7.63873 3.46327 8.1263 3.46327C8.61387 3.46327 9.00913 3.85852 9.00913 4.3461V16.7696Z" fill="white"/>
<path d="M17.5841 19.4306C17.5841 19.9182 17.1888 20.3135 16.7013 20.3135C16.2137 20.3135 15.8184 19.9182 15.8184 19.4306V12.2418C15.8184 11.7542 16.2137 11.359 16.7013 11.359C17.1888 11.359 17.5841 11.7542 17.5841 12.2418V19.4306Z" fill="white"/>
<path d="M17.5841 7.58269C17.5841 8.07026 17.1888 8.46552 16.7013 8.46552C16.2137 8.46552 15.8184 8.07026 15.8184 7.58269V4.34607C15.8184 3.85849 16.2137 3.46323 16.7013 3.46323C17.1888 3.46323 17.5841 3.85849 17.5841 4.34607V7.58269Z" fill="white"/>
<path d="M11.7522 18.0905C11.7522 18.5781 11.357 18.9733 10.8694 18.9733C10.3818 18.9733 9.98657 18.5781 9.98657 18.0905V6.40556C9.98657 5.91798 10.3818 5.52273 10.8694 5.52273C11.357 5.52273 11.7522 5.91798 11.7522 6.40556V18.0905Z" fill="white"/>
<path d="M4.66201 15.8868C4.17443 15.8868 3.77917 16.282 3.77917 16.7696C3.77917 17.2572 4.17443 17.6524 4.66201 17.6524H8.12627C8.61385 17.6524 9.0091 17.2572 9.0091 16.7696C9.0091 16.282 8.61385 15.8868 8.12627 15.8868H4.66201Z" fill="white"/>
<path d="M16.7012 11.1377C17.1887 11.1377 17.584 11.5329 17.584 12.0205C17.584 12.5081 17.1887 12.9033 16.7012 12.9033L12.0926 12.9033C11.605 12.9033 11.2098 12.5081 11.2098 12.0205C11.2098 11.5329 11.605 11.1377 12.0926 11.1377L16.7012 11.1377Z" fill="white"/>
<path d="M16.7012 11.1377C17.1887 11.1377 17.584 11.5329 17.584 12.0205C17.584 12.5081 17.1887 12.9033 16.7012 12.9033L12.0926 12.9033C11.605 12.9033 11.2098 12.5081 11.2098 12.0205C11.2098 11.5329 11.605 11.1377 12.0926 11.1377L16.7012 11.1377Z" fill="white"/>
<path d="M16.7012 11.1377C17.1887 11.1377 17.584 11.5329 17.584 12.0205C17.584 12.5081 17.1887 12.9033 16.7012 12.9033L12.0926 12.9033C11.605 12.9033 11.2098 12.5081 11.2098 12.0205C11.2098 11.5329 11.605 11.1377 12.0926 11.1377L16.7012 11.1377Z" fill="white"/>
<path d="M16.7012 6.69985C17.1887 6.69985 17.584 7.09511 17.584 7.58268C17.584 8.07026 17.1887 8.46552 16.7012 8.46552L11.7522 8.46552C11.2646 8.46551 10.8694 8.07026 10.8694 7.58268C10.8694 7.09511 11.2646 6.69985 11.7522 6.69985L16.7012 6.69985Z" fill="white"/>
<path d="M16.7012 6.69985C17.1887 6.69985 17.584 7.09511 17.584 7.58268C17.584 8.07026 17.1887 8.46552 16.7012 8.46552L11.7522 8.46552C11.2646 8.46551 10.8694 8.07026 10.8694 7.58268C10.8694 7.09511 11.2646 6.69985 11.7522 6.69985L16.7012 6.69985Z" fill="white"/>
<path d="M16.7012 6.69985C17.1887 6.69985 17.584 7.09511 17.584 7.58268C17.584 8.07026 17.1887 8.46552 16.7012 8.46552L11.7522 8.46552C11.2646 8.46551 10.8694 8.07026 10.8694 7.58268C10.8694 7.09511 11.2646 6.69985 11.7522 6.69985L16.7012 6.69985Z" fill="white"/>
<path d="M16.1706 16.0306C16.6581 16.0306 17.0534 16.4259 17.0534 16.9134C17.0534 17.401 16.6581 17.7963 16.1706 17.7963L11.3761 17.7963C10.8886 17.7963 10.4933 17.401 10.4933 16.9134C10.4933 16.4259 10.8886 16.0306 11.3761 16.0306L16.1706 16.0306Z" fill="white"/>
<path d="M16.1706 16.0306C16.6581 16.0306 17.0534 16.4259 17.0534 16.9134C17.0534 17.401 16.6581 17.7963 16.1706 17.7963L11.3761 17.7963C10.8886 17.7963 10.4933 17.401 10.4933 16.9134C10.4933 16.4259 10.8886 16.0306 11.3761 16.0306L16.1706 16.0306Z" fill="white"/>
<path d="M16.1706 16.0306C16.6581 16.0306 17.0534 16.4259 17.0534 16.9134C17.0534 17.401 16.6581 17.7963 16.1706 17.7963L11.3761 17.7963C10.8886 17.7963 10.4933 17.401 10.4933 16.9134C10.4933 16.4259 10.8886 16.0306 11.3761 16.0306L16.1706 16.0306Z" fill="white"/>
<path d="M15.3278 13.9452L15.3278 13.9452C15.0872 14.3675 14.5523 14.5108 14.1329 14.2654L11.6288 12.8C11.2094 12.5545 11.0644 12.0133 11.3049 11.591L11.3049 11.591C11.5454 11.1688 12.0804 11.0254 12.4998 11.2709L15.0039 12.7363C15.4233 12.9817 15.5683 13.523 15.3278 13.9452Z" fill="white"/>
<path d="M15.3278 13.9452L15.3278 13.9452C15.0872 14.3675 14.5523 14.5108 14.1329 14.2654L11.6288 12.8C11.2094 12.5545 11.0644 12.0133 11.3049 11.591L11.3049 11.591C11.5454 11.1688 12.0804 11.0254 12.4998 11.2709L15.0039 12.7363C15.4233 12.9817 15.5683 13.523 15.3278 13.9452Z" fill="white"/>
<path d="M15.3278 13.9452L15.3278 13.9452C15.0872 14.3675 14.5523 14.5108 14.1329 14.2654L11.6288 12.8C11.2094 12.5545 11.0644 12.0133 11.3049 11.591L11.3049 11.591C11.5454 11.1688 12.0804 11.0254 12.4998 11.2709L15.0039 12.7363C15.4233 12.9817 15.5683 13.523 15.3278 13.9452Z" fill="white"/>
<path d="M11.3049 12.4738L11.3049 12.4738C11.0644 12.0515 11.2094 11.5103 11.6288 11.2648L14.1329 9.79943C14.5523 9.55399 15.0872 9.69732 15.3278 10.1196L15.3278 10.1196C15.5683 10.5418 15.4233 11.0831 15.0038 11.3285L12.4998 12.7939C12.0804 13.0394 11.5454 12.896 11.3049 12.4738Z" fill="white"/>
<path d="M11.3049 12.4738L11.3049 12.4738C11.0644 12.0515 11.2094 11.5103 11.6288 11.2648L14.1329 9.79943C14.5523 9.55399 15.0872 9.69732 15.3278 10.1196L15.3278 10.1196C15.5683 10.5418 15.4233 11.0831 15.0038 11.3285L12.4998 12.7939C12.0804 13.0394 11.5454 12.896 11.3049 12.4738Z" fill="white"/>
<path d="M11.3049 12.4738L11.3049 12.4738C11.0644 12.0515 11.2094 11.5103 11.6288 11.2648L14.1329 9.79943C14.5523 9.55399 15.0872 9.69732 15.3278 10.1196L15.3278 10.1196C15.5683 10.5418 15.4233 11.0831 15.0038 11.3285L12.4998 12.7939C12.0804 13.0394 11.5454 12.896 11.3049 12.4738Z" fill="white"/>
</svg>
