<svg width="25" height="25" viewBox="0 0 25 25" fill="none" xmlns="http://www.w3.org/2000/svg">
<path fill-rule="evenodd" clip-rule="evenodd" d="M12.8168 2.49152C18.3443 2.49152 22.8253 6.97247 22.8253 12.5C22.8253 18.0275 18.3443 22.5085 12.8168 22.5085C7.28931 22.5085 2.80835 18.0275 2.80835 12.5C2.80835 6.97247 7.28931 2.49152 12.8168 2.49152ZM12.8168 4.25772C17.3689 4.25772 21.0591 7.94792 21.0591 12.5C21.0591 17.0521 17.3689 20.7423 12.8168 20.7423C8.26476 20.7423 4.57456 17.0521 4.57456 12.5C4.57456 7.94792 8.26476 4.25772 12.8168 4.25772Z" fill="white"/>
<path d="M8.6129 21.1963H8.6129C8.12518 21.1963 7.7298 20.8009 7.7298 20.3132V4.81139C7.7298 4.32367 8.12518 3.92829 8.6129 3.92829C9.10063 3.92829 9.49601 4.32367 9.49601 4.81139V20.3132C9.49601 20.8009 9.10063 21.1963 8.6129 21.1963Z" fill="white"/>
<path d="M5.14763 16.3557C4.65991 16.3557 4.26453 16.751 4.26453 17.2388C4.26453 17.7265 4.65991 18.1219 5.14763 18.1219H7.72986V16.3557H5.14763Z" fill="white"/>
<path d="M8.61298 17.2269V17.2269C8.61298 17.7146 9.00835 18.11 9.49608 18.11H19.7744C20.2621 18.11 20.6575 17.7146 20.6575 17.2269C20.6575 16.7392 20.2621 16.3438 19.7744 16.3438H9.49608C9.00835 16.3438 8.61298 16.7392 8.61298 17.2269Z" fill="white"/>
<path d="M8.61298 17.2269V17.2269C8.61298 17.7146 9.00835 18.11 9.49608 18.11H19.7744C20.2621 18.11 20.6575 17.7146 20.6575 17.2269C20.6575 16.7392 20.2621 16.3438 19.7744 16.3438H9.49608C9.00835 16.3438 8.61298 16.7392 8.61298 17.2269Z" fill="white"/>
<path d="M8.61298 17.2269V17.2269C8.61298 17.7146 9.00835 18.11 9.49608 18.11H19.7744C20.2621 18.11 20.6575 17.7146 20.6575 17.2269C20.6575 16.7392 20.2621 16.3438 19.7744 16.3438H9.49608C9.00835 16.3438 8.61298 16.7392 8.61298 17.2269Z" fill="white"/>
<path d="M20.9905 8.04896L20.9905 8.04896C20.9905 8.53669 20.5952 8.93207 20.1074 8.93207L9.49614 8.93207C9.00842 8.93207 8.61304 8.53669 8.61304 8.04896C8.61304 7.56124 9.00842 7.16586 9.49614 7.16586L20.1074 7.16586C20.5952 7.16586 20.9905 7.56124 20.9905 8.04896Z" fill="white"/>
<path d="M20.9905 8.04896L20.9905 8.04896C20.9905 8.53669 20.5952 8.93207 20.1074 8.93207L9.49614 8.93207C9.00842 8.93207 8.61304 8.53669 8.61304 8.04896C8.61304 7.56124 9.00842 7.16586 9.49614 7.16586L20.1074 7.16586C20.5952 7.16586 20.9905 7.56124 20.9905 8.04896Z" fill="white"/>
<path d="M20.9905 8.04896L20.9905 8.04896C20.9905 8.53669 20.5952 8.93207 20.1074 8.93207L9.49614 8.93207C9.00842 8.93207 8.61304 8.53669 8.61304 8.04896C8.61304 7.56124 9.00842 7.16586 9.49614 7.16586L20.1074 7.16586C20.5952 7.16586 20.9905 7.56124 20.9905 8.04896Z" fill="white"/>
<path d="M16.6287 19.1521L16.6287 19.1521C16.864 19.5745 17.3911 19.7156 17.806 19.4674L20.2392 18.0114C20.6541 17.7632 20.7997 17.2195 20.5644 16.7971L20.5644 16.7971C20.3291 16.3748 19.802 16.2336 19.3871 16.4819L16.9539 17.9378C16.539 18.186 16.3934 18.7297 16.6287 19.1521Z" fill="white"/>
<path d="M16.6287 19.1521L16.6287 19.1521C16.864 19.5745 17.3911 19.7156 17.806 19.4674L20.2392 18.0114C20.6541 17.7632 20.7997 17.2195 20.5644 16.7971L20.5644 16.7971C20.3291 16.3748 19.802 16.2336 19.3871 16.4819L16.9539 17.9378C16.539 18.186 16.3934 18.7297 16.6287 19.1521Z" fill="white"/>
<path d="M16.6287 19.1521L16.6287 19.1521C16.864 19.5745 17.3911 19.7156 17.806 19.4674L20.2392 18.0114C20.6541 17.7632 20.7997 17.2195 20.5644 16.7971L20.5644 16.7971C20.3291 16.3748 19.802 16.2336 19.3871 16.4819L16.9539 17.9378C16.539 18.186 16.3934 18.7297 16.6287 19.1521Z" fill="white"/>
<path d="M20.5645 17.6803L20.5645 17.6803C20.7998 17.2579 20.6542 16.7143 20.2393 16.466L17.806 15.0101C17.3911 14.7618 16.864 14.903 16.6287 15.3254L16.6287 15.3254C16.3934 15.7478 16.539 16.2914 16.9539 16.5397L19.3872 17.9956C19.8021 18.2439 20.3292 18.1027 20.5645 17.6803Z" fill="white"/>
<path d="M20.5645 17.6803L20.5645 17.6803C20.7998 17.2579 20.6542 16.7143 20.2393 16.466L17.806 15.0101C17.3911 14.7618 16.864 14.903 16.6287 15.3254L16.6287 15.3254C16.3934 15.7478 16.539 16.2914 16.9539 16.5397L19.3872 17.9956C19.8021 18.2439 20.3292 18.1027 20.5645 17.6803Z" fill="white"/>
<path d="M20.5645 17.6803L20.5645 17.6803C20.7998 17.2579 20.6542 16.7143 20.2393 16.466L17.806 15.0101C17.3911 14.7618 16.864 14.903 16.6287 15.3254L16.6287 15.3254C16.3934 15.7478 16.539 16.2914 16.9539 16.5397L19.3872 17.9956C19.8021 18.2439 20.3292 18.1027 20.5645 17.6803Z" fill="white"/>
</svg>
