<svg width="25" height="25" viewBox="0 0 25 25" fill="none" xmlns="http://www.w3.org/2000/svg">
<path fill-rule="evenodd" clip-rule="evenodd" d="M12.9389 2.49115C18.4666 2.49115 22.9477 6.97225 22.9477 12.5C22.9477 18.0277 18.4666 22.5088 12.9389 22.5088C7.41123 22.5088 2.93011 18.0277 2.93011 12.5C2.93011 6.97225 7.41123 2.49115 12.9389 2.49115ZM12.9389 4.25741C17.4911 4.25741 21.1815 7.94773 21.1815 12.5C21.1815 17.0522 17.4911 20.7426 12.9389 20.7426C8.3867 20.7426 4.69639 17.0522 4.69639 12.5C4.69639 7.94773 8.3867 4.25741 12.9389 4.25741Z" fill="white"/>
<path d="M9.61801 20.3135C9.61801 20.8012 9.22262 21.1966 8.73488 21.1966C8.24714 21.1966 7.85175 20.8012 7.85175 20.3135V4.81113C7.85175 4.32339 8.24714 3.92799 8.73488 3.92799C9.22262 3.92799 9.61801 4.32339 9.61801 4.81113V20.3135Z" fill="white"/>
<path d="M5.26942 16.3558C4.78168 16.3558 4.38629 16.7512 4.38629 17.2389C4.38629 17.7266 4.78168 18.122 5.26942 18.122H7.85174V16.3558H5.26942Z" fill="white"/>
<path d="M20.6799 16.344C21.1676 16.344 21.563 16.7394 21.563 17.2271C21.563 17.7148 21.1676 18.1102 20.6799 18.1102L9.96312 18.1102C9.47538 18.1102 9.07999 17.7148 9.07999 17.2271C9.07999 16.7394 9.47538 16.344 9.96312 16.344L20.6799 16.344Z" fill="white"/>
<path d="M20.6799 16.344C21.1676 16.344 21.563 16.7394 21.563 17.2271C21.563 17.7148 21.1676 18.1102 20.6799 18.1102L9.96312 18.1102C9.47538 18.1102 9.07999 17.7148 9.07999 17.2271C9.07999 16.7394 9.47538 16.344 9.96312 16.344L20.6799 16.344Z" fill="white"/>
<path d="M20.6799 16.344C21.1676 16.344 21.563 16.7394 21.563 17.2271C21.563 17.7148 21.1676 18.1102 20.6799 18.1102L9.96312 18.1102C9.47538 18.1102 9.07999 17.7148 9.07999 17.2271C9.07999 16.7394 9.47538 16.344 9.96312 16.344L20.6799 16.344Z" fill="white"/>
<path d="M20.2297 7.16569C20.7175 7.16569 21.1129 7.56108 21.1129 8.04882C21.1129 8.53656 20.7175 8.93195 20.2297 8.93195L9.61799 8.93195C9.13025 8.93195 8.73485 8.53656 8.73485 8.04882C8.73485 7.56108 9.13025 7.16569 9.61799 7.16569L20.2297 7.16569Z" fill="white"/>
<path d="M20.2297 7.16569C20.7175 7.16569 21.1129 7.56108 21.1129 8.04882C21.1129 8.53656 20.7175 8.93195 20.2297 8.93195L9.61799 8.93195C9.13025 8.93195 8.73485 8.53656 8.73485 8.04882C8.73485 7.56108 9.13025 7.16569 9.61799 7.16569L20.2297 7.16569Z" fill="white"/>
<path d="M20.2297 7.16569C20.7175 7.16569 21.1129 7.56108 21.1129 8.04882C21.1129 8.53656 20.7175 8.93195 20.2297 8.93195L9.61799 8.93195C9.13025 8.93195 8.73485 8.53656 8.73485 8.04882C8.73485 7.56108 9.13025 7.16569 9.61799 7.16569L20.2297 7.16569Z" fill="white"/>
<path d="M12.9323 17.946C13.3547 18.1899 13.4994 18.73 13.2555 19.1524C13.0117 19.5748 12.4715 19.7195 12.0492 19.4756L9.49977 18.0037C9.07737 17.7599 8.93265 17.2197 9.17652 16.7973C9.42039 16.3749 9.9605 16.2302 10.3829 16.4741L12.9323 17.946Z" fill="white"/>
<path d="M12.9323 17.946C13.3547 18.1899 13.4994 18.73 13.2555 19.1524C13.0117 19.5748 12.4715 19.7195 12.0492 19.4756L9.49977 18.0037C9.07737 17.7599 8.93265 17.2197 9.17652 16.7973C9.42039 16.3749 9.9605 16.2302 10.3829 16.4741L12.9323 17.946Z" fill="white"/>
<path d="M12.9323 17.946C13.3547 18.1899 13.4994 18.73 13.2555 19.1524C13.0117 19.5748 12.4715 19.7195 12.0492 19.4756L9.49977 18.0037C9.07737 17.7599 8.93265 17.2197 9.17652 16.7973C9.42039 16.3749 9.9605 16.2302 10.3829 16.4741L12.9323 17.946Z" fill="white"/>
<path d="M10.3829 18.0038C9.96048 18.2476 9.42036 18.1029 9.17649 17.6805C8.93262 17.2581 9.07734 16.718 9.49974 16.4741L12.0491 15.0022C12.4715 14.7584 13.0116 14.9031 13.2555 15.3255C13.4994 15.7479 13.3547 16.288 12.9323 16.5319L10.3829 18.0038Z" fill="white"/>
<path d="M10.3829 18.0038C9.96048 18.2476 9.42036 18.1029 9.17649 17.6805C8.93262 17.2581 9.07734 16.718 9.49974 16.4741L12.0491 15.0022C12.4715 14.7584 13.0116 14.9031 13.2555 15.3255C13.4994 15.7479 13.3547 16.288 12.9323 16.5319L10.3829 18.0038Z" fill="white"/>
<path d="M10.3829 18.0038C9.96048 18.2476 9.42036 18.1029 9.17649 17.6805C8.93262 17.2581 9.07734 16.718 9.49974 16.4741L12.0491 15.0022C12.4715 14.7584 13.0116 14.9031 13.2555 15.3255C13.4994 15.7479 13.3547 16.288 12.9323 16.5319L10.3829 18.0038Z" fill="white"/>
</svg>
