<svg width="25" height="25" viewBox="0 0 25 25" fill="none" xmlns="http://www.w3.org/2000/svg">
<path fill-rule="evenodd" clip-rule="evenodd" d="M12.5729 2.8241C18.0972 2.8241 22.5756 7.30245 22.5756 12.8268C22.5756 18.3511 18.0972 22.8295 12.5729 22.8295C7.04855 22.8295 2.57019 18.3511 2.57019 12.8268C2.57019 7.30245 7.04855 2.8241 12.5729 2.8241ZM12.5729 4.58928C17.1223 4.58928 20.8104 8.27733 20.8104 12.8268C20.8104 17.3762 17.1223 21.0643 12.5729 21.0643C8.02343 21.0643 4.33537 17.3762 4.33537 12.8268C4.33537 8.27733 8.02343 4.58928 12.5729 4.58928Z" fill="white"/>
<path d="M9.25407 17.5628C9.25407 18.0502 8.85892 18.4454 8.37148 18.4454C7.88404 18.4454 7.48889 18.0502 7.48889 17.5628V5.14256C7.48889 4.65512 7.88404 4.25997 8.37148 4.25997C8.85892 4.25997 9.25407 4.65512 9.25407 5.14256V17.5628Z" fill="white"/>
<path d="M17.8266 20.223C17.8266 20.7104 17.4314 21.1056 16.944 21.1056C16.4566 21.1056 16.0614 20.7104 16.0614 20.223V13.0361C16.0614 12.5487 16.4566 12.1535 16.944 12.1535C17.4314 12.1535 17.8266 12.5487 17.8266 13.0361V20.223Z" fill="white"/>
<path d="M17.8266 8.37834C17.8266 8.86578 17.4314 9.26093 16.944 9.26093C16.4566 9.26093 16.0614 8.86578 16.0614 8.37834V5.1426C16.0614 4.65515 16.4566 4.26001 16.944 4.26001C17.4314 4.26001 17.8266 4.65515 17.8266 5.1426V8.37834Z" fill="white"/>
<path d="M11.9964 9.55509C11.9964 10.0425 11.6012 10.4377 11.1138 10.4377C10.6263 10.4377 10.2312 10.0425 10.2312 9.55509V7.20152C10.2312 6.71408 10.6263 6.31893 11.1138 6.31893C11.6012 6.31893 11.9964 6.71408 11.9964 7.20152V9.55509Z" fill="white"/>
<path d="M11.9964 14.1473C11.9964 14.6348 11.6012 15.0299 11.1138 15.0299C10.6263 15.0299 10.2312 14.6348 10.2312 14.1473V11.7937C10.2312 11.3063 10.6263 10.9112 11.1138 10.9112C11.6012 10.9112 11.9964 11.3063 11.9964 11.7937V14.1473Z" fill="white"/>
<path d="M11.9964 18.8833C11.9964 19.3707 11.6012 19.7659 11.1138 19.7659C10.6263 19.7659 10.2312 19.3707 10.2312 18.8833V16.5297C10.2312 16.0423 10.6263 15.6471 11.1138 15.6471C11.6012 15.6471 11.9964 16.0423 11.9964 16.5297V18.8833Z" fill="white"/>
<path d="M4.9081 16.6802C4.42066 16.6802 4.02551 17.0754 4.02551 17.5628C4.02551 18.0502 4.42066 18.4454 4.9081 18.4454H8.37141C8.85886 18.4454 9.25401 18.0502 9.25401 17.5628C9.25401 17.0754 8.85886 16.6802 8.37142 16.6802H4.9081Z" fill="white"/>
<path d="M16.9441 11.9323C17.4315 11.9323 17.8267 12.3275 17.8267 12.8149C17.8267 13.3024 17.4315 13.6975 16.9441 13.6975L12.3368 13.6975C11.8493 13.6975 11.4542 13.3024 11.4542 12.8149C11.4542 12.3275 11.8493 11.9323 12.3368 11.9323L16.9441 11.9323Z" fill="white"/>
<path d="M16.9441 11.9323C17.4315 11.9323 17.8267 12.3275 17.8267 12.8149C17.8267 13.3024 17.4315 13.6975 16.9441 13.6975L12.3368 13.6975C11.8493 13.6975 11.4542 13.3024 11.4542 12.8149C11.4542 12.3275 11.8493 11.9323 12.3368 11.9323L16.9441 11.9323Z" fill="white"/>
<path d="M16.9441 11.9323C17.4315 11.9323 17.8267 12.3275 17.8267 12.8149C17.8267 13.3024 17.4315 13.6975 16.9441 13.6975L12.3368 13.6975C11.8493 13.6975 11.4542 13.3024 11.4542 12.8149C11.4542 12.3275 11.8493 11.9323 12.3368 11.9323L16.9441 11.9323Z" fill="white"/>
<path d="M16.9441 7.49575C17.4315 7.49575 17.8267 7.8909 17.8267 8.37834C17.8267 8.86578 17.4315 9.26093 16.9441 9.26093L11.9965 9.26093C11.509 9.26093 11.1139 8.86578 11.1139 8.37834C11.1139 7.8909 11.509 7.49575 11.9965 7.49575L16.9441 7.49575Z" fill="white"/>
<path d="M16.9441 7.49575C17.4315 7.49575 17.8267 7.8909 17.8267 8.37834C17.8267 8.86578 17.4315 9.26093 16.9441 9.26093L11.9965 9.26093C11.509 9.26093 11.1139 8.86578 11.1139 8.37834C11.1139 7.8909 11.509 7.49575 11.9965 7.49575L16.9441 7.49575Z" fill="white"/>
<path d="M16.9441 7.49575C17.4315 7.49575 17.8267 7.8909 17.8267 8.37834C17.8267 8.86578 17.4315 9.26093 16.9441 9.26093L11.9965 9.26093C11.509 9.26093 11.1139 8.86578 11.1139 8.37834C11.1139 7.8909 11.509 7.49575 11.9965 7.49575L16.9441 7.49575Z" fill="white"/>
<path d="M16.4136 16.824C16.9011 16.824 17.2962 17.2191 17.2962 17.7066C17.2962 18.194 16.9011 18.5892 16.4136 18.5892L11.6205 18.5892C11.133 18.5892 10.7379 18.194 10.7379 17.7066C10.7379 17.2191 11.133 16.824 11.6205 16.824L16.4136 16.824Z" fill="white"/>
<path d="M16.4136 16.824C16.9011 16.824 17.2962 17.2191 17.2962 17.7066C17.2962 18.194 16.9011 18.5892 16.4136 18.5892L11.6205 18.5892C11.133 18.5892 10.7379 18.194 10.7379 17.7066C10.7379 17.2191 11.133 16.824 11.6205 16.824L16.4136 16.824Z" fill="white"/>
<path d="M16.4136 16.824C16.9011 16.824 17.2962 17.2191 17.2962 17.7066C17.2962 18.194 16.9011 18.5892 16.4136 18.5892L11.6205 18.5892C11.133 18.5892 10.7379 18.194 10.7379 17.7066C10.7379 17.2191 11.133 16.824 11.6205 16.824L16.4136 16.824Z" fill="white"/>
<path d="M15.5711 14.7391L15.5711 14.7391C15.3306 15.1612 14.7958 15.3045 14.3765 15.0591L11.8731 13.5941C11.4538 13.3488 11.3088 12.8076 11.5493 12.3855L11.5493 12.3855C11.7897 11.9634 12.3245 11.8201 12.7438 12.0654L15.2472 13.5304C15.6665 13.7758 15.8115 14.3169 15.5711 14.7391Z" fill="white"/>
<path d="M15.5711 14.7391L15.5711 14.7391C15.3306 15.1612 14.7958 15.3045 14.3765 15.0591L11.8731 13.5941C11.4538 13.3488 11.3088 12.8076 11.5493 12.3855L11.5493 12.3855C11.7897 11.9634 12.3245 11.8201 12.7438 12.0654L15.2472 13.5304C15.6665 13.7758 15.8115 14.3169 15.5711 14.7391Z" fill="white"/>
<path d="M15.5711 14.7391L15.5711 14.7391C15.3306 15.1612 14.7958 15.3045 14.3765 15.0591L11.8731 13.5941C11.4538 13.3488 11.3088 12.8076 11.5493 12.3855L11.5493 12.3855C11.7897 11.9634 12.3245 11.8201 12.7438 12.0654L15.2472 13.5304C15.6665 13.7758 15.8115 14.3169 15.5711 14.7391Z" fill="white"/>
<path d="M11.5493 13.2681L11.5493 13.2681C11.3088 12.8459 11.4538 12.3048 11.8731 12.0594L14.3765 10.5944C14.7958 10.3491 15.3306 10.4924 15.5711 10.9145L15.5711 10.9145C15.8115 11.3366 15.6665 11.8778 15.2472 12.1231L12.7438 13.5881C12.3245 13.8335 11.7897 13.6902 11.5493 13.2681Z" fill="white"/>
<path d="M11.5493 13.2681L11.5493 13.2681C11.3088 12.8459 11.4538 12.3048 11.8731 12.0594L14.3765 10.5944C14.7958 10.3491 15.3306 10.4924 15.5711 10.9145L15.5711 10.9145C15.8115 11.3366 15.6665 11.8778 15.2472 12.1231L12.7438 13.5881C12.3245 13.8335 11.7897 13.6902 11.5493 13.2681Z" fill="white"/>
<path d="M11.5493 13.2681L11.5493 13.2681C11.3088 12.8459 11.4538 12.3048 11.8731 12.0594L14.3765 10.5944C14.7958 10.3491 15.3306 10.4924 15.5711 10.9145L15.5711 10.9145C15.8115 11.3366 15.6665 11.8778 15.2472 12.1231L12.7438 13.5881C12.3245 13.8335 11.7897 13.6902 11.5493 13.2681Z" fill="white"/>
</svg>
