<svg width="25" height="25" viewBox="0 0 25 25" fill="none" xmlns="http://www.w3.org/2000/svg">
<path fill-rule="evenodd" clip-rule="evenodd" d="M12.6949 2.49731C18.2192 2.49731 22.6976 6.97567 22.6976 12.5C22.6976 18.0243 18.2192 22.5027 12.6949 22.5027C7.17056 22.5027 2.6922 18.0243 2.6922 12.5C2.6922 6.97567 7.17056 2.49731 12.6949 2.49731ZM12.6949 4.26249C17.2443 4.26249 20.9324 7.95055 20.9324 12.5C20.9324 17.0494 17.2443 20.7375 12.6949 20.7375C8.14544 20.7375 4.45738 17.0494 4.45738 12.5C4.45738 7.95055 8.14544 4.26249 12.6949 4.26249Z" fill="white"/>
<path d="M9.37608 17.236C9.37608 17.7234 8.98093 18.1186 8.49349 18.1186C8.00605 18.1186 7.6109 17.7234 7.6109 17.236V4.81578C7.6109 4.32834 8.00605 3.93319 8.49349 3.93319C8.98093 3.93319 9.37608 4.32834 9.37608 4.81578V17.236Z" fill="white"/>
<path d="M17.9486 19.8962C17.9486 20.3837 17.5534 20.7788 17.066 20.7788C16.5786 20.7788 16.1834 20.3837 16.1834 19.8962V12.7093C16.1834 12.2219 16.5786 11.8267 17.066 11.8267C17.5534 11.8267 17.9486 12.2219 17.9486 12.7093V19.8962Z" fill="white"/>
<path d="M17.9486 8.05155C17.9486 8.53899 17.5534 8.93414 17.066 8.93414C16.5786 8.93414 16.1834 8.53899 16.1834 8.05155V4.81581C16.1834 4.32837 16.5786 3.93322 17.066 3.93322C17.5534 3.93322 17.9486 4.32837 17.9486 4.81581V8.05155Z" fill="white"/>
<path d="M12.1184 9.22831C12.1184 9.71575 11.7232 10.1109 11.2358 10.1109C10.7484 10.1109 10.3532 9.71575 10.3532 9.22831V6.87474C10.3532 6.3873 10.7484 5.99215 11.2358 5.99215C11.7232 5.99215 12.1184 6.3873 12.1184 6.87474V9.22831Z" fill="white"/>
<path d="M12.1184 13.8205C12.1184 14.308 11.7232 14.7031 11.2358 14.7031C10.7484 14.7031 10.3532 14.308 10.3532 13.8205V11.467C10.3532 10.9795 10.7484 10.5844 11.2358 10.5844C11.7232 10.5844 12.1184 10.9795 12.1184 11.467V13.8205Z" fill="white"/>
<path d="M12.1184 18.5565C12.1184 19.0439 11.7232 19.4391 11.2358 19.4391C10.7484 19.4391 10.3532 19.0439 10.3532 18.5565V16.2029C10.3532 15.7155 10.7484 15.3203 11.2358 15.3203C11.7232 15.3203 12.1184 15.7155 12.1184 16.2029V18.5565Z" fill="white"/>
<path d="M11.7424 11.6678C11.255 11.6678 10.8598 12.063 10.8598 12.5504C10.8598 13.0378 11.255 13.433 11.7424 13.433H17.066C17.5534 13.433 17.9486 13.0378 17.9486 12.5504C17.9486 12.063 17.5534 11.6678 17.066 11.6678H11.7424Z" fill="white"/>
<path d="M11.7424 11.6678C11.255 11.6678 10.8598 12.063 10.8598 12.5504C10.8598 13.0378 11.255 13.433 11.7424 13.433H17.066C17.5534 13.433 17.9486 13.0378 17.9486 12.5504C17.9486 12.063 17.5534 11.6678 17.066 11.6678H11.7424Z" fill="white"/>
<path d="M11.7424 11.6678C11.255 11.6678 10.8598 12.063 10.8598 12.5504C10.8598 13.0378 11.255 13.433 11.7424 13.433H17.066C17.5534 13.433 17.9486 13.0378 17.9486 12.5504C17.9486 12.063 17.5534 11.6678 17.066 11.6678H11.7424Z" fill="white"/>
<path d="M17.0661 7.16896C17.5535 7.16896 17.9487 7.56411 17.9487 8.05155C17.9487 8.53899 17.5535 8.93414 17.0661 8.93414L12.1185 8.93414C11.631 8.93414 11.2359 8.53899 11.2359 8.05155C11.2359 7.56411 11.631 7.16896 12.1185 7.16896L17.0661 7.16896Z" fill="white"/>
<path d="M17.0661 7.16896C17.5535 7.16896 17.9487 7.56411 17.9487 8.05155C17.9487 8.53899 17.5535 8.93414 17.0661 8.93414L12.1185 8.93414C11.631 8.93414 11.2359 8.53899 11.2359 8.05155C11.2359 7.56411 11.631 7.16896 12.1185 7.16896L17.0661 7.16896Z" fill="white"/>
<path d="M17.0661 7.16896C17.5535 7.16896 17.9487 7.56411 17.9487 8.05155C17.9487 8.53899 17.5535 8.93414 17.0661 8.93414L12.1185 8.93414C11.631 8.93414 11.2359 8.53899 11.2359 8.05155C11.2359 7.56411 11.631 7.16896 12.1185 7.16896L17.0661 7.16896Z" fill="white"/>
<path d="M16.5356 16.4972C17.0231 16.4972 17.4182 16.8924 17.4182 17.3798C17.4182 17.8672 17.0231 18.2624 16.5356 18.2624L11.7425 18.2624C11.2551 18.2624 10.8599 17.8672 10.8599 17.3798C10.8599 16.8924 11.2551 16.4972 11.7425 16.4972L16.5356 16.4972Z" fill="white"/>
<path d="M16.5356 16.4972C17.0231 16.4972 17.4182 16.8924 17.4182 17.3798C17.4182 17.8672 17.0231 18.2624 16.5356 18.2624L11.7425 18.2624C11.2551 18.2624 10.8599 17.8672 10.8599 17.3798C10.8599 16.8924 11.2551 16.4972 11.7425 16.4972L16.5356 16.4972Z" fill="white"/>
<path d="M16.5356 16.4972C17.0231 16.4972 17.4182 16.8924 17.4182 17.3798C17.4182 17.8672 17.0231 18.2624 16.5356 18.2624L11.7425 18.2624C11.2551 18.2624 10.8599 17.8672 10.8599 17.3798C10.8599 16.8924 11.2551 16.4972 11.7425 16.4972L16.5356 16.4972Z" fill="white"/>
<path d="M13.8317 14.4745L13.8317 14.4745C14.0722 14.8967 14.607 15.04 15.0263 14.7946L17.5297 13.3296C17.949 13.0842 18.094 12.5431 17.8535 12.121L17.8535 12.121C17.6131 11.6988 17.0782 11.5555 16.6589 11.8009L14.1555 13.2659C13.7362 13.5113 13.5913 14.0524 13.8317 14.4745Z" fill="white"/>
<path d="M13.8317 14.4745L13.8317 14.4745C14.0722 14.8967 14.607 15.04 15.0263 14.7946L17.5297 13.3296C17.949 13.0842 18.094 12.5431 17.8535 12.121L17.8535 12.121C17.6131 11.6988 17.0782 11.5555 16.6589 11.8009L14.1555 13.2659C13.7362 13.5113 13.5913 14.0524 13.8317 14.4745Z" fill="white"/>
<path d="M13.8317 14.4745L13.8317 14.4745C14.0722 14.8967 14.607 15.04 15.0263 14.7946L17.5297 13.3296C17.949 13.0842 18.094 12.5431 17.8535 12.121L17.8535 12.121C17.6131 11.6988 17.0782 11.5555 16.6589 11.8009L14.1555 13.2659C13.7362 13.5113 13.5913 14.0524 13.8317 14.4745Z" fill="white"/>
<path d="M17.8536 13.0035L17.8536 13.0035C18.0941 12.5814 17.9491 12.0403 17.5298 11.7949L15.0264 10.3299C14.6071 10.0845 14.0723 10.2278 13.8318 10.65L13.8318 10.65C13.5914 11.0721 13.7364 11.6132 14.1557 11.8586L16.6591 13.3236C17.0784 13.569 17.6132 13.4257 17.8536 13.0035Z" fill="white"/>
<path d="M17.8536 13.0035L17.8536 13.0035C18.0941 12.5814 17.9491 12.0403 17.5298 11.7949L15.0264 10.3299C14.6071 10.0845 14.0723 10.2278 13.8318 10.65L13.8318 10.65C13.5914 11.0721 13.7364 11.6132 14.1557 11.8586L16.6591 13.3236C17.0784 13.569 17.6132 13.4257 17.8536 13.0035Z" fill="white"/>
<path d="M17.8536 13.0035L17.8536 13.0035C18.0941 12.5814 17.9491 12.0403 17.5298 11.7949L15.0264 10.3299C14.6071 10.0845 14.0723 10.2278 13.8318 10.65L13.8318 10.65C13.5914 11.0721 13.7364 11.6132 14.1557 11.8586L16.6591 13.3236C17.0784 13.569 17.6132 13.4257 17.8536 13.0035Z" fill="white"/>
<path d="M5.03011 16.3534C4.54267 16.3534 4.14752 16.7486 4.14752 17.236C4.14752 17.7234 4.54267 18.1186 5.03011 18.1186H8.49342C8.98087 18.1186 9.37602 17.7234 9.37602 17.236C9.37602 16.7486 8.98087 16.3534 8.49343 16.3534H5.03011Z" fill="white"/>
</svg>
