<svg width="25" height="25" viewBox="0 0 25 25" fill="none" xmlns="http://www.w3.org/2000/svg">
<path fill-rule="evenodd" clip-rule="evenodd" d="M22.085 3.1377C22.085 2.58542 21.6373 2.1377 21.085 2.1377H3.08496C2.53268 2.1377 2.08496 2.58542 2.08496 3.1377V21.1377C2.08496 21.69 2.53268 22.1377 3.08496 22.1377H21.085C21.6373 22.1377 22.085 21.69 22.085 21.1377V3.1377ZM20.585 4.6377C20.585 4.08542 20.1373 3.6377 19.585 3.6377H4.58496C4.03268 3.6377 3.58496 4.08542 3.58496 4.6377V19.6377C3.58496 20.19 4.03268 20.6377 4.58496 20.6377H19.585C20.1373 20.6377 20.585 20.19 20.585 19.6377V4.6377Z" fill="white"/>
<path d="M14.585 8.1377H9.58496C8.75653 8.1377 8.08496 8.80927 8.08496 9.6377V14.6377C8.08496 15.4661 8.75653 16.1377 9.58496 16.1377H14.585C15.4134 16.1377 16.085 15.4661 16.085 14.6377V9.6377C16.085 8.80927 15.4134 8.1377 14.585 8.1377Z" fill="white"/>
<path d="M8.26174 12.3145C8.35937 12.2168 8.35937 12.0586 8.26174 11.9609L6.67075 10.37C6.57312 10.2724 6.41482 10.2724 6.31719 10.37C6.21956 10.4677 6.21956 10.626 6.31719 10.7236L7.73141 12.1377L6.31719 13.5519C6.21956 13.6495 6.21956 13.8078 6.31719 13.9055C6.41482 14.0031 6.57312 14.0031 6.67075 13.9055L8.26174 12.3145ZM5.08496 12.3877H8.08496V11.8877H5.08496V12.3877Z" fill="white"/>
<path d="M19.2617 14.3145C19.3593 14.2168 19.3593 14.0586 19.2617 13.9609L17.6708 12.3699C17.5732 12.2723 17.4149 12.2723 17.3172 12.3699C17.2196 12.4676 17.2196 12.6259 17.3172 12.7235L18.7314 14.1377L17.3172 15.5519C17.2196 15.6495 17.2196 15.8078 17.3172 15.9055C17.4149 16.0031 17.5732 16.0031 17.6708 15.9055L19.2617 14.3145ZM16.085 14.3877H19.085V13.8877H16.085V14.3877Z" fill="white"/>
<path d="M19.2617 10.3145C19.3593 10.2168 19.3593 10.0585 19.2617 9.9609L17.6708 8.36991C17.5732 8.27228 17.4149 8.27228 17.3172 8.36991C17.2196 8.46754 17.2196 8.62584 17.3172 8.72347L18.7314 10.1377L17.3172 11.5519C17.2196 11.6495 17.2196 11.8078 17.3172 11.9055C17.4149 12.0031 17.5732 12.0031 17.6708 11.9055L19.2617 10.3145ZM16.085 10.3877H19.085V9.88768H16.085V10.3877Z" fill="white"/>
</svg>
