<svg width="25" height="25" viewBox="0 0 25 25" fill="none" xmlns="http://www.w3.org/2000/svg">
<path fill-rule="evenodd" clip-rule="evenodd" d="M22.2069 3.5C22.2069 2.94772 21.7592 2.5 21.2069 2.5H3.20691C2.65463 2.5 2.20691 2.94772 2.20691 3.5V21.5C2.20691 22.0523 2.65463 22.5 3.20691 22.5H21.2069C21.7592 22.5 22.2069 22.0523 22.2069 21.5V3.5ZM20.7069 5C20.7069 4.44772 20.2592 4 19.7069 4H4.70691C4.15463 4 3.70691 4.44772 3.70691 5V20C3.70691 20.5523 4.15463 21 4.70691 21H19.7069C20.2592 21 20.7069 20.5523 20.7069 20V5Z" fill="white"/>
<path d="M14.7069 8.5H9.70691C8.87848 8.5 8.20691 9.17157 8.20691 10V15C8.20691 15.8284 8.87848 16.5 9.70691 16.5H14.7069C15.5353 16.5 16.2069 15.8284 16.2069 15V10C16.2069 9.17157 15.5353 8.5 14.7069 8.5Z" fill="white"/>
<path d="M8.38369 12.6768C8.48132 12.5791 8.48132 12.4209 8.38369 12.3232L6.7927 10.7322C6.69507 10.6346 6.53677 10.6346 6.43914 10.7322C6.34151 10.8299 6.34151 10.9882 6.43914 11.0858L7.85336 12.5L6.43914 13.9142C6.34151 14.0118 6.34151 14.1701 6.43914 14.2678C6.53677 14.3654 6.69507 14.3654 6.7927 14.2678L8.38369 12.6768ZM5.20691 12.75H8.20691V12.25H5.20691V12.75Z" fill="white"/>
<path d="M19.3837 12.6768C19.4813 12.5791 19.4813 12.4209 19.3837 12.3232L17.7927 10.7322C17.6951 10.6346 17.5368 10.6346 17.4391 10.7322C17.3415 10.8299 17.3415 10.9882 17.4391 11.0858L18.8533 12.5L17.4391 13.9142C17.3415 14.0118 17.3415 14.1701 17.4391 14.2678C17.5368 14.3654 17.6951 14.3654 17.7927 14.2678L19.3837 12.6768ZM16.2069 12.75H19.2069V12.25H16.2069V12.75Z" fill="white"/>
</svg>
