<svg width="25" height="25" viewBox="0 0 25 25" fill="none" xmlns="http://www.w3.org/2000/svg">
<path fill-rule="evenodd" clip-rule="evenodd" d="M11.4601 19.0975C11.8528 19.7175 12.7572 19.7175 13.1498 19.0975L20.7993 7.01795C21.2209 6.35213 20.7425 5.48294 19.9544 5.48294H4.6556C3.86751 5.48294 3.38912 6.35213 3.81076 7.01795L11.4601 19.0975ZM11.4601 16.2829C11.8528 16.9029 12.7572 16.9029 13.1498 16.2829L18.1257 8.42526C18.5473 7.75944 18.069 6.89026 17.2809 6.89026H7.32915C6.54106 6.89026 6.06267 7.75944 6.4843 8.42526L11.4601 16.2829Z" fill="white"/>
<path d="M19.904 18.6046H4.40399C3.98978 18.6046 3.65399 18.9404 3.65399 19.3546C3.65399 19.7688 3.98978 20.1046 4.40399 20.1046H19.904C20.3182 20.1046 20.654 19.7688 20.654 19.3546C20.654 18.9404 20.3182 18.6046 19.904 18.6046Z" fill="white"/>
<path d="M11.555 3.41436V5.79483C11.555 6.20904 11.8908 6.54483 12.305 6.54483C12.7192 6.54483 13.055 6.20904 13.055 5.79483V3.41436C13.055 3.00015 12.7192 2.66436 12.305 2.66436C11.8908 2.66436 11.555 3.00015 11.555 3.41436Z" fill="white"/>
<path d="M12.305 22.6046C11.8908 22.6046 11.555 22.2688 11.555 21.8546V19.4741C11.555 19.0599 11.8908 18.7241 12.305 18.7241C12.7192 18.7241 13.055 19.0599 13.055 19.4741V21.8546C13.055 22.2688 12.7192 22.6046 12.305 22.6046Z" fill="white"/>
<path d="M18.741 12.0141C18.6105 12.059 18.5411 12.2013 18.586 12.3318C18.631 12.4624 18.7733 12.5318 18.9038 12.4868L18.741 12.0141ZM22.4855 10.9891L19.6518 10.4383L20.5917 13.1678L22.4855 10.9891ZM18.9038 12.4868L20.4395 11.958L20.2767 11.4853L18.741 12.0141L18.9038 12.4868Z" fill="#CC00FF"/>
<path d="M18.741 14.9514C18.6105 14.9964 18.5411 15.1387 18.586 15.2692C18.631 15.3998 18.7733 15.4692 18.9038 15.4242L18.741 14.9514ZM22.4855 13.9265L19.6518 13.3757L20.5917 16.1052L22.4855 13.9265ZM18.9038 15.4242L20.4395 14.8954L20.2767 14.4227L18.741 14.9514L18.9038 15.4242Z" fill="#CC00FF"/>
</svg>
