<svg width="25" height="25" viewBox="0 0 25 25" fill="none" xmlns="http://www.w3.org/2000/svg">
<path fill-rule="evenodd" clip-rule="evenodd" d="M11.8262 19.0975C12.2189 19.7175 13.1233 19.7175 13.5159 19.0975L21.1654 7.01792C21.587 6.3521 21.1086 5.48291 20.3205 5.48291H5.02173C4.23364 5.48291 3.75525 6.3521 4.17688 7.01792L11.8262 19.0975ZM11.8262 16.2829C12.2189 16.9029 13.1233 16.9029 13.5159 16.2829L18.4918 8.42523C18.9134 7.75941 18.4351 6.89023 17.647 6.89023H7.69528C6.90719 6.89023 6.4288 7.75941 6.85043 8.42523L11.8262 16.2829Z" fill="white"/>
<path d="M20.2701 18.6046H4.77008C4.35587 18.6046 4.02008 18.9404 4.02008 19.3546C4.02008 19.7688 4.35587 20.1046 4.77008 20.1046H20.2701C20.6843 20.1046 21.0201 19.7688 21.0201 19.3546C21.0201 18.9404 20.6843 18.6046 20.2701 18.6046Z" fill="white"/>
<path d="M11.9211 3.41433V5.7948C11.9211 6.20901 12.2569 6.5448 12.6711 6.5448C13.0853 6.5448 13.4211 6.20901 13.4211 5.7948V3.41433C13.4211 3.00011 13.0853 2.66433 12.6711 2.66433C12.2569 2.66433 11.9211 3.00011 11.9211 3.41433Z" fill="white"/>
<path d="M12.6711 22.6046C12.2569 22.6046 11.9211 22.2688 11.9211 21.8546V19.4741C11.9211 19.0599 12.2569 18.7241 12.6711 18.7241C13.0853 18.7241 13.4211 19.0599 13.4211 19.4741V21.8546C13.4211 22.2688 13.0853 22.6046 12.6711 22.6046Z" fill="white"/>
</svg>
