<svg width="25" height="25" viewBox="0 0 25 25" fill="none" xmlns="http://www.w3.org/2000/svg">
<path fill-rule="evenodd" clip-rule="evenodd" d="M13.516 5.90251C13.1233 5.28251 12.2189 5.28251 11.8263 5.90251L4.17678 17.9821C3.75518 18.6479 4.23358 19.5171 5.02168 19.5171L20.3205 19.5171C21.1086 19.5171 21.587 18.6479 21.1653 17.9821L13.516 5.90251ZM13.516 8.71711C13.1233 8.09711 12.2189 8.09711 11.8263 8.71711L6.85038 16.5748C6.42878 17.2406 6.90708 18.1098 7.69518 18.1098L17.6469 18.1098C18.435 18.1098 18.9134 17.2406 18.4918 16.5748L13.516 8.71711Z" fill="white"/>
<path d="M5.07214 6.39541L20.5721 6.39542C20.9864 6.39542 21.3221 6.05963 21.3221 5.64542C21.3221 5.2312 20.9864 4.89542 20.5721 4.89542L5.07214 4.89541C4.65793 4.89541 4.32214 5.2312 4.32214 5.64541C4.32214 6.05963 4.65793 6.39541 5.07214 6.39541Z" fill="white"/>
<path d="M13.4211 21.5856L13.4211 19.2052C13.4211 18.791 13.0853 18.4552 12.6711 18.4552C12.2569 18.4552 11.9211 18.791 11.9211 19.2052L11.9211 21.5856C11.9211 21.9999 12.2569 22.3356 12.6711 22.3356C13.0853 22.3356 13.4211 21.9999 13.4211 21.5856Z" fill="white"/>
<path d="M12.6711 2.39541C13.0853 2.39541 13.4211 2.73121 13.4211 3.14541L13.4211 5.52591C13.4211 5.94011 13.0853 6.27591 12.6711 6.27591C12.2569 6.27591 11.9211 5.94011 11.9211 5.52591L11.9211 3.14541C11.9211 2.73121 12.2569 2.39541 12.6711 2.39541Z" fill="white"/>
</svg>
