<svg width="25" height="25" viewBox="0 0 25 25" fill="none" xmlns="http://www.w3.org/2000/svg">
<path fill-rule="evenodd" clip-rule="evenodd" d="M13.2719 5.90248C12.8792 5.28248 11.9748 5.28248 11.5822 5.90248L3.93273 17.982C3.51113 18.6479 3.98953 19.5171 4.77763 19.5171L20.0765 19.5171C20.8645 19.5171 21.3429 18.6479 20.9213 17.982L13.2719 5.90248ZM13.2719 8.71708C12.8792 8.09708 11.9748 8.09708 11.5822 8.71708L6.60633 16.5747C6.18473 17.2406 6.66303 18.1097 7.45113 18.1097L17.4029 18.1097C18.191 18.1097 18.6694 17.2406 18.2478 16.5747L13.2719 8.71708Z" fill="white"/>
<path d="M4.82806 6.39541L20.3281 6.39542C20.7423 6.39542 21.0781 6.05963 21.0781 5.64542C21.0781 5.2312 20.7423 4.89542 20.3281 4.89542L4.82806 4.89541C4.41385 4.89541 4.07806 5.2312 4.07806 5.64541C4.07806 6.05963 4.41385 6.39541 4.82806 6.39541Z" fill="white"/>
<path d="M13.177 21.5856L13.177 19.2052C13.177 18.791 12.8412 18.4552 12.427 18.4552C12.0128 18.4552 11.677 18.791 11.677 19.2052L11.677 21.5856C11.677 21.9999 12.0128 22.3356 12.427 22.3356C12.8412 22.3356 13.177 21.9999 13.177 21.5856Z" fill="white"/>
<path d="M21.078 8.14539L21.078 5.64539C21.078 5.23117 20.7422 4.89539 20.328 4.89539C19.9138 4.89539 19.578 5.23117 19.578 5.64539L19.578 8.14539C19.578 8.5596 19.9138 8.89539 20.328 8.89539C20.7422 8.89539 21.078 8.5596 21.078 8.14539Z" fill="white"/>
<path d="M5.57803 5.64539L5.57803 3.14539C5.57803 2.73117 5.24225 2.39539 4.82803 2.39539C4.41382 2.39539 4.07803 2.73117 4.07803 3.14539L4.07803 5.64539C4.07803 6.0596 4.41382 6.39539 4.82803 6.39539C5.24225 6.39539 5.57803 6.0596 5.57803 5.64539Z" fill="white"/>
<path d="M12.427 2.39541C12.8412 2.39541 13.177 2.73121 13.177 3.14541L13.177 5.52591C13.177 5.94011 12.8412 6.27591 12.427 6.27591C12.0128 6.27591 11.677 5.94011 11.677 5.52591L11.677 3.14541C11.677 2.73121 12.0128 2.39541 12.427 2.39541Z" fill="white"/>
</svg>
