<svg width="25" height="25" viewBox="0 0 25 25" fill="none" xmlns="http://www.w3.org/2000/svg">
<path fill-rule="evenodd" clip-rule="evenodd" d="M11.5821 19.0975C11.9748 19.7175 12.8792 19.7175 13.2718 19.0975L20.9213 7.01792C21.3429 6.3521 20.8645 5.48291 20.0764 5.48291H4.77761C3.98952 5.48291 3.51113 6.3521 3.93277 7.01792L11.5821 19.0975ZM11.5821 16.2829C11.9748 16.9029 12.8792 16.9029 13.2718 16.2829L18.2477 8.42523C18.6693 7.75941 18.191 6.89023 17.4029 6.89023H7.45116C6.66307 6.89023 6.18468 7.75941 6.60631 8.42523L11.5821 16.2829Z" fill="white"/>
<path d="M20.026 18.6046H4.526C4.11179 18.6046 3.776 18.9404 3.776 19.3546C3.776 19.7688 4.11179 20.1046 4.526 20.1046H20.026C20.4402 20.1046 20.776 19.7688 20.776 19.3546C20.776 18.9404 20.4402 18.6046 20.026 18.6046Z" fill="white"/>
<path d="M11.677 3.41439V5.79486C11.677 6.20907 12.0128 6.54486 12.427 6.54486C12.8412 6.54486 13.177 6.20907 13.177 5.79486V3.41439C13.177 3.00018 12.8412 2.66439 12.427 2.66439C12.0128 2.66439 11.677 3.00018 11.677 3.41439Z" fill="white"/>
<path d="M3.77603 16.8546V19.3546C3.77603 19.7688 4.11182 20.1046 4.52603 20.1046C4.94025 20.1046 5.27603 19.7688 5.27603 19.3546V16.8546C5.27603 16.4404 4.94025 16.1046 4.52603 16.1046C4.11182 16.1046 3.77603 16.4404 3.77603 16.8546Z" fill="white"/>
<path d="M19.2761 19.3546V21.8546C19.2761 22.2688 19.6118 22.6046 20.0261 22.6046C20.4403 22.6046 20.7761 22.2688 20.7761 21.8546V19.3546C20.7761 18.9404 20.4403 18.6046 20.0261 18.6046C19.6118 18.6046 19.2761 18.9404 19.2761 19.3546Z" fill="white"/>
<path d="M12.427 22.6046C12.0128 22.6046 11.677 22.2688 11.677 21.8546V19.4741C11.677 19.0599 12.0128 18.7241 12.427 18.7241C12.8412 18.7241 13.177 19.0599 13.177 19.4741V21.8546C13.177 22.2688 12.8412 22.6046 12.427 22.6046Z" fill="white"/>
</svg>
