<svg width="25" height="25" viewBox="0 0 25 25" fill="none" xmlns="http://www.w3.org/2000/svg">
<path fill-rule="evenodd" clip-rule="evenodd" d="M22.8411 3.5C22.8411 2.94772 22.3934 2.5 21.8411 2.5H3.84106C3.28878 2.5 2.84106 2.94772 2.84106 3.5V21.5C2.84106 22.0523 3.28878 22.5 3.84106 22.5H21.8411C22.3934 22.5 22.8411 22.0523 22.8411 21.5V3.5ZM21.3411 5C21.3411 4.44772 20.8934 4 20.3411 4H5.34106C4.78878 4 4.34106 4.44772 4.34106 5V20C4.34106 20.5523 4.78878 21 5.34106 21H20.3411C20.8934 21 21.3411 20.5523 21.3411 20V5Z" fill="white"/>
<path d="M15.3411 8.5H10.3411C9.51264 8.5 8.84106 9.17157 8.84106 10V15C8.84106 15.8284 9.51264 16.5 10.3411 16.5H15.3411C16.1695 16.5 16.8411 15.8284 16.8411 15V10C16.8411 9.17157 16.1695 8.5 15.3411 8.5Z" fill="white"/>
<path d="M9.01784 14.6768C9.11547 14.5791 9.11547 14.4209 9.01784 14.3232L7.42685 12.7322C7.32922 12.6346 7.17092 12.6346 7.07329 12.7322C6.97566 12.8299 6.97566 12.9882 7.07329 13.0858L8.48751 14.5L7.07329 15.9142C6.97566 16.0118 6.97566 16.1701 7.07329 16.2678C7.17092 16.3654 7.32922 16.3654 7.42685 16.2678L9.01784 14.6768ZM5.84106 14.75H8.84106V14.25H5.84106V14.75Z" fill="white"/>
<path d="M9.01784 10.6768C9.11547 10.5791 9.11547 10.4208 9.01784 10.3232L7.42685 8.73222C7.32922 8.63459 7.17092 8.63459 7.07329 8.73222C6.97566 8.82985 6.97566 8.98815 7.07329 9.08578L8.48751 10.5L7.07329 11.9142C6.97566 12.0118 6.97566 12.1701 7.07329 12.2678C7.17092 12.3654 7.32922 12.3654 7.42685 12.2678L9.01784 10.6768ZM5.84106 10.75H8.84106V10.25H5.84106V10.75Z" fill="white"/>
<path d="M20.0179 14.6768C20.1155 14.5791 20.1155 14.4209 20.0179 14.3232L18.4269 12.7322C18.3293 12.6346 18.171 12.6346 18.0733 12.7322C17.9757 12.8299 17.9757 12.9882 18.0733 13.0858L19.4875 14.5L18.0733 15.9142C17.9757 16.0118 17.9757 16.1701 18.0733 16.2678C18.171 16.3654 18.3293 16.3654 18.4269 16.2678L20.0179 14.6768ZM16.8411 14.75H19.8411V14.25H16.8411V14.75Z" fill="white"/>
<path d="M20.0179 10.6768C20.1155 10.5791 20.1155 10.4208 20.0179 10.3232L18.4269 8.73222C18.3293 8.63459 18.171 8.63459 18.0733 8.73222C17.9757 8.82985 17.9757 8.98815 18.0733 9.08578L19.4875 10.5L18.0733 11.9142C17.9757 12.0118 17.9757 12.1701 18.0733 12.2678C18.171 12.3654 18.3293 12.3654 18.4269 12.2678L20.0179 10.6768ZM16.8411 10.75H19.8411V10.25H16.8411V10.75Z" fill="white"/>
</svg>
