<svg width="25" height="25" viewBox="0 0 25 25" fill="none" xmlns="http://www.w3.org/2000/svg">
<path fill-rule="evenodd" clip-rule="evenodd" d="M22.963 3.5C22.963 2.94772 22.5153 2.5 21.963 2.5H3.96301C3.41073 2.5 2.96301 2.94772 2.96301 3.5V21.5C2.96301 22.0523 3.41073 22.5 3.96301 22.5H21.963C22.5153 22.5 22.963 22.0523 22.963 21.5V3.5ZM21.463 5C21.463 4.44772 21.0153 4 20.463 4H5.46301C4.91073 4 4.46301 4.44772 4.46301 5V20C4.46301 20.5523 4.91073 21 5.46301 21H20.463C21.0153 21 21.463 20.5523 21.463 20V5Z" fill="white"/>
<path d="M15.463 8.5H10.463C9.63459 8.5 8.96301 9.17157 8.96301 10V15C8.96301 15.8284 9.63459 16.5 10.463 16.5H15.463C16.2914 16.5 16.963 15.8284 16.963 15V10C16.963 9.17157 16.2914 8.5 15.463 8.5Z" fill="white"/>
<path d="M20.1398 12.6769C20.2374 12.5792 20.2374 12.421 20.1398 12.3233L18.5488 10.7323C18.4512 10.6347 18.2929 10.6347 18.1952 10.7323C18.0976 10.83 18.0976 10.9883 18.1952 11.0859L19.6094 12.5001L18.1952 13.9142C18.0976 14.0118 18.0976 14.1701 18.1952 14.2678C18.2929 14.3654 18.4512 14.3654 18.5488 14.2678L20.1398 12.6769ZM16.963 12.7501H19.963V12.2501H16.963V12.7501Z" fill="white"/>
<path d="M9.13979 14.6768C9.23742 14.5791 9.23742 14.4209 9.13979 14.3232L7.5488 12.7322C7.45117 12.6346 7.29287 12.6346 7.19524 12.7322C7.09761 12.8299 7.09761 12.9882 7.19524 13.0858L8.60946 14.5L7.19524 15.9142C7.09761 16.0118 7.09761 16.1701 7.19524 16.2678C7.29287 16.3654 7.45117 16.3654 7.5488 16.2678L9.13979 14.6768ZM5.96301 14.75H8.96301V14.25H5.96301V14.75Z" fill="white"/>
<path d="M9.13979 10.6768C9.23742 10.5791 9.23742 10.4208 9.13979 10.3232L7.5488 8.73222C7.45117 8.63459 7.29287 8.63459 7.19524 8.73222C7.09761 8.82985 7.09761 8.98815 7.19524 9.08578L8.60946 10.5L7.19524 11.9142C7.09761 12.0118 7.09761 12.1701 7.19524 12.2678C7.29287 12.3654 7.45117 12.3654 7.5488 12.2678L9.13979 10.6768ZM5.96301 10.75H8.96301V10.25H5.96301V10.75Z" fill="white"/>
</svg>
