<svg width="25" height="25" viewBox="0 0 25 25" fill="none" xmlns="http://www.w3.org/2000/svg">
<path fill-rule="evenodd" clip-rule="evenodd" d="M11.7042 19.0975C12.0969 19.7175 13.0013 19.7175 13.3939 19.0975L21.0434 7.01792C21.465 6.3521 20.9866 5.48291 20.1985 5.48291H4.89969C4.1116 5.48291 3.63321 6.3521 4.05484 7.01792L11.7042 19.0975ZM11.7042 16.2829C12.0969 16.9029 13.0013 16.9029 13.3939 16.2829L18.3698 8.42523C18.7914 7.75941 18.3131 6.89023 17.525 6.89023H7.57324C6.78515 6.89023 6.30676 7.75941 6.72839 8.42523L11.7042 16.2829Z" fill="white"/>
<path d="M20.1481 18.6046H4.64807C4.23386 18.6046 3.89807 18.9404 3.89807 19.3546C3.89807 19.7688 4.23386 20.1046 4.64807 20.1046H20.1481C20.5623 20.1046 20.8981 19.7688 20.8981 19.3546C20.8981 18.9404 20.5623 18.6046 20.1481 18.6046Z" fill="white"/>
<path d="M11.7991 3.41439V5.79486C11.7991 6.20907 12.1349 6.54486 12.5491 6.54486C12.9633 6.54486 13.2991 6.20907 13.2991 5.79486V3.41439C13.2991 3.00018 12.9633 2.66439 12.5491 2.66439C12.1349 2.66439 11.7991 3.00018 11.7991 3.41439Z" fill="white"/>
<path d="M3.89807 16.8546V19.3546C3.89807 19.7688 4.23386 20.1046 4.64807 20.1046C5.06228 20.1046 5.39807 19.7688 5.39807 19.3546V16.8546C5.39807 16.4404 5.06228 16.1046 4.64807 16.1046C4.23386 16.1046 3.89807 16.4404 3.89807 16.8546Z" fill="white"/>
<path d="M12.5491 22.6046C12.1349 22.6046 11.7991 22.2688 11.7991 21.8546V19.4741C11.7991 19.0599 12.1349 18.7241 12.5491 18.7241C12.9633 18.7241 13.2991 19.0599 13.2991 19.4741V21.8546C13.2991 22.2688 12.9633 22.6046 12.5491 22.6046Z" fill="white"/>
</svg>
