<svg width="25" height="25" viewBox="0 0 25 25" fill="none" xmlns="http://www.w3.org/2000/svg">
<path fill-rule="evenodd" clip-rule="evenodd" d="M13.3939 5.90248C13.0012 5.28248 12.0968 5.28248 11.7042 5.90248L4.05474 17.982C3.63314 18.6479 4.11154 19.5171 4.89964 19.5171L20.1985 19.5171C20.9865 19.5171 21.4649 18.6479 21.0433 17.982L13.3939 5.90248ZM13.3939 8.71708C13.0012 8.09708 12.0968 8.09708 11.7042 8.71708L6.72834 16.5747C6.30674 17.2406 6.78504 18.1097 7.57314 18.1097L17.5249 18.1097C18.313 18.1097 18.7914 17.2406 18.3698 16.5747L13.3939 8.71708Z" fill="white"/>
<path d="M4.9501 6.39541L20.4501 6.39542C20.8643 6.39542 21.2001 6.05963 21.2001 5.64542C21.2001 5.2312 20.8643 4.89542 20.4501 4.89542L4.9501 4.89541C4.53589 4.89541 4.2001 5.2312 4.2001 5.64541C4.2001 6.05963 4.53589 6.39541 4.9501 6.39541Z" fill="white"/>
<path d="M13.2991 21.5856L13.2991 19.2052C13.2991 18.791 12.9633 18.4552 12.5491 18.4552C12.1349 18.4552 11.7991 18.791 11.7991 19.2052L11.7991 21.5856C11.7991 21.9999 12.1349 22.3356 12.5491 22.3356C12.9633 22.3356 13.2991 21.9999 13.2991 21.5856Z" fill="white"/>
<path d="M21.2001 8.14539L21.2001 5.64539C21.2001 5.23117 20.8643 4.89539 20.4501 4.89539C20.0359 4.89539 19.7001 5.23117 19.7001 5.64539L19.7001 8.14539C19.7001 8.5596 20.0359 8.89539 20.4501 8.89539C20.8643 8.89539 21.2001 8.5596 21.2001 8.14539Z" fill="white"/>
<path d="M12.5491 2.39541C12.9633 2.39541 13.2991 2.73121 13.2991 3.14541L13.2991 5.52591C13.2991 5.94011 12.9633 6.27591 12.5491 6.27591C12.1349 6.27591 11.7991 5.94011 11.7991 5.52591L11.7991 3.14541C11.7991 2.73121 12.1349 2.39541 12.5491 2.39541Z" fill="white"/>
</svg>
