<svg width="24" height="24" viewBox="0 0 121 121" fill="none" xmlns="http://www.w3.org/2000/svg">
    <path fill-rule="evenodd" clip-rule="evenodd" d="M60.5903 110.692C88.2318 110.692 110.64 88.2843 110.64 60.6428C110.64 33.0012 88.2318 10.5933 60.5903 10.5933C32.9487 10.5933 10.5408 33.0012 10.5408 60.6428C10.5408 88.2843 32.9487 110.692 60.5903 110.692ZM60.5903 101.86C83.3538 101.86 101.808 83.4063 101.808 60.6428C101.808 37.8792 83.3538 19.4256 60.5903 19.4256C37.8267 19.4256 19.3731 37.8792 19.3731 60.6428C19.3731 83.4063 37.8267 101.86 60.5903 101.86Z" fill="#252323"/>
    <path d="M43.9839 21.5714C43.9839 19.1324 42.0067 17.1553 39.5677 17.1553C37.1288 17.1553 35.1516 19.1324 35.1516 21.5714V99.0916C35.1516 101.531 37.1288 103.508 39.5677 103.508C42.0067 103.508 43.9839 101.531 43.9839 99.0916V21.5714Z" fill="#252323"/>
    <path d="M44.5196 56.5797C42.795 54.855 39.9989 54.855 38.2743 56.5797C36.5497 58.3043 36.5497 61.1004 38.2743 62.825L74.5759 99.1266C76.3005 100.851 79.0967 100.851 80.8213 99.1266C82.5459 97.402 82.5459 94.6059 80.8213 92.8813L44.5196 56.5797Z" fill="#252323"/>
    <path d="M44.5196 56.5797C42.795 54.855 39.9989 54.855 38.2743 56.5797C36.5497 58.3043 36.5497 61.1004 38.2743 62.825L74.5759 99.1266C76.3005 100.851 79.0967 100.851 80.8213 99.1266C82.5459 97.402 82.5459 94.6059 80.8213 92.8813L44.5196 56.5797Z" fill="#252323"/>
    <path d="M44.5196 56.5797C42.795 54.855 39.9989 54.855 38.2743 56.5797C36.5497 58.3043 36.5497 61.1004 38.2743 62.825L74.5759 99.1266C76.3005 100.851 79.0967 100.851 80.8213 99.1266C82.5459 97.402 82.5459 94.6059 80.8213 92.8813L44.5196 56.5797Z" fill="#252323"/>
    <path d="M64.6579 88.0475C62.3021 87.4162 59.8805 88.8143 59.2493 91.1702C58.6181 93.526 60.0161 95.9476 62.372 96.5788L76.5908 100.389C78.9467 101.02 81.3682 99.6219 81.9995 97.2661C82.6307 94.9102 81.2326 92.4887 78.8768 91.8574L64.6579 88.0475Z" fill="#252323"/>
    <path d="M64.6579 88.0475C62.3021 87.4162 59.8805 88.8143 59.2493 91.1702C58.6181 93.526 60.0161 95.9476 62.372 96.5788L76.5908 100.389C78.9467 101.02 81.3682 99.6219 81.9995 97.2661C82.6307 94.9102 81.2326 92.4887 78.8768 91.8574L64.6579 88.0475Z" fill="#252323"/>
    <path d="M64.6579 88.0475C62.3021 87.4162 59.8805 88.8143 59.2493 91.1702C58.6181 93.526 60.0161 95.9476 62.372 96.5788L76.5908 100.389C78.9467 101.02 81.3682 99.6219 81.9995 97.2661C82.6307 94.9102 81.2326 92.4887 78.8768 91.8574L64.6579 88.0475Z" fill="#252323"/>
    <path d="M73.4681 97.2661C74.0993 99.622 76.5208 101.02 78.8767 100.389C81.2325 99.7575 82.6306 97.336 81.9994 94.9802L78.1894 80.7613C77.5582 78.4055 75.1367 77.0074 72.7808 77.6386C70.4249 78.2699 69.0269 80.6914 69.6581 83.0473L73.4681 97.2661Z" fill="#252323"/>
    <path d="M73.4681 97.2661C74.0993 99.622 76.5208 101.02 78.8767 100.389C81.2325 99.7575 82.6306 97.336 81.9994 94.9802L78.1894 80.7613C77.5582 78.4055 75.1367 77.0074 72.7808 77.6386C70.4249 78.2699 69.0269 80.6914 69.6581 83.0473L73.4681 97.2661Z" fill="#252323"/>
    <path d="M73.4681 97.2661C74.0993 99.622 76.5208 101.02 78.8767 100.389C81.2325 99.7575 82.6306 97.336 81.9994 94.9802L78.1894 80.7613C77.5582 78.4055 75.1367 77.0074 72.7808 77.6386C70.4249 78.2699 69.0269 80.6914 69.6581 83.0473L73.4681 97.2661Z" fill="#252323"/>
    <path d="M44.5196 62.825C42.795 64.5496 39.9989 64.5496 38.2743 62.825C36.5497 61.1004 36.5497 58.3043 38.2743 56.5796L74.5759 20.278C76.3005 18.5534 79.0967 18.5534 80.8213 20.278C82.5459 22.0026 82.5459 24.7988 80.8213 26.5234L44.5196 62.825Z" fill="#252323"/>
    <path d="M18.9592 65.0588C16.5202 65.0588 14.5431 63.0818 14.5431 60.6428C14.5431 58.2038 16.5202 56.2268 18.9592 56.2268H35.1515V65.0588H18.9592Z" fill="#252323"/>
</svg>