<svg width="24" height="24" viewBox="0 0 121 121" fill="none" xmlns="http://www.w3.org/2000/svg">
    <path fill-rule="evenodd" clip-rule="evenodd" d="M56.3658 93.6303C58.3293 96.7303 62.8513 96.7303 64.8143 93.6303L103.062 33.2325C105.17 29.9034 102.778 25.5574 98.8373 25.5574H22.3432C18.4028 25.5574 16.0108 29.9034 18.119 33.2325L56.3658 93.6303ZM56.3658 79.5573C58.3293 82.6573 62.8513 82.6573 64.8143 79.5573L89.6938 40.269C91.8018 36.9399 89.4103 32.594 85.4698 32.594H35.711C31.7705 32.594 29.3786 36.9399 31.4867 40.269L56.3658 79.5573Z" fill="#252323"/>
    <path d="M98.5853 91.1658H21.0853C19.0142 91.1658 17.3353 92.8448 17.3353 94.9158C17.3353 96.9869 19.0142 98.6658 21.0853 98.6658H98.5853C100.656 98.6658 102.335 96.9869 102.335 94.9158C102.335 92.8448 100.656 91.1658 98.5853 91.1658Z" fill="#252323"/>
    <path d="M56.8403 15.2147V27.1171C56.8403 29.1881 58.5193 30.8671 60.5903 30.8671C62.6614 30.8671 64.3404 29.1881 64.3404 27.1171V15.2147C64.3404 13.1437 62.6614 11.4647 60.5903 11.4647C58.5193 11.4647 56.8403 13.1437 56.8403 15.2147Z" fill="#252323"/>
    <path d="M60.5903 111.166C58.5193 111.166 56.8403 109.487 56.8403 107.416V95.5133C56.8403 93.4423 58.5193 91.7633 60.5903 91.7633C62.6613 91.7633 64.3403 93.4423 64.3403 95.5133V107.416C64.3403 109.487 62.6613 111.166 60.5903 111.166Z" fill="#252323"/>
</svg>