<svg width="202" height="55" viewBox="0 0 202 55" fill="none" xmlns="http://www.w3.org/2000/svg">
<path fill-rule="evenodd" clip-rule="evenodd" d="M13.68 25.416C14.784 24.264 16.416 23.688 18.576 23.688C22.608 23.688 24.72 26.16 24.912 31.104C24.912 31.536 24.696 31.752 24.264 31.752H12.096C11.76 31.752 11.592 31.56 11.592 31.176C11.88 28.44 12.576 26.52 13.68 25.416ZM5.256 49.752C8.808 53.064 13.848 54.72 20.376 54.72C23.352 54.72 26.232 54.456 29.016 53.928C30.168 53.736 31.104 53.16 31.824 52.2C32.592 51.192 32.976 50.088 32.976 48.888V48.744C32.976 47.736 32.568 46.92 31.752 46.296C30.984 45.672 30.096 45.48 29.088 45.72C26.592 46.344 24.264 46.656 22.104 46.656C18.792 46.656 16.296 46.104 14.616 45C12.984 43.848 11.976 41.952 11.592 39.312C11.496 38.88 11.688 38.664 12.168 38.664H31.392C32.544 38.664 33.552 38.28 34.416 37.512C35.328 36.696 35.784 35.712 35.784 34.56C35.592 22.08 29.784 15.84 18.36 15.84C12.408 15.84 7.848 17.52 4.68 20.88C1.56 24.192 0 28.992 0 35.28C0 41.616 1.752 46.44 5.256 49.752ZM46.1846 52.776C47.0006 53.592 47.9606 54 49.0646 54H53.0966C54.2006 54 55.1606 53.592 55.9766 52.776C56.7926 51.96 57.2006 51 57.2006 49.896V4.104C57.2006 3 56.7926 2.04 55.9766 1.224C55.1606 0.408 54.2006 0 53.0966 0H49.0646C47.9606 0 47.0006 0.408 46.1846 1.224C45.3686 2.04 44.9606 3 44.9606 4.104V49.896C44.9606 51 45.3686 51.96 46.1846 52.776ZM70.9211 49.824C74.2331 53.088 78.9851 54.72 85.1771 54.72C87.6731 54.72 90.2411 54.504 92.8811 54.072C94.0331 53.88 94.9931 53.328 95.7611 52.416C96.5291 51.456 96.9131 50.376 96.9131 49.176V48.456C96.9131 47.448 96.5051 46.632 95.6891 46.008C94.9211 45.384 94.0331 45.192 93.0251 45.432C91.2491 45.816 89.2331 46.008 86.9771 46.008C83.9531 46.008 81.7211 45.192 80.2811 43.56C78.8891 41.88 78.1931 39.12 78.1931 35.28C78.1931 31.536 78.8411 28.824 80.1371 27.144C81.4811 25.416 83.5211 24.552 86.2571 24.552C88.3691 24.552 90.4091 24.72 92.3771 25.056C93.3851 25.248 94.2971 25.032 95.1131 24.408C95.9291 23.784 96.3371 22.968 96.3371 21.96V21.24C96.3371 20.04 95.9531 19.008 95.1851 18.144C94.4651 17.232 93.5051 16.68 92.3051 16.488C89.0411 16.056 86.4251 15.84 84.4571 15.84C78.5051 15.84 73.9211 17.52 70.7051 20.88C67.5371 24.192 65.9531 28.992 65.9531 35.28C65.9531 41.712 67.6091 46.56 70.9211 49.824ZM151.021 52.776C151.837 53.592 152.797 54 153.901 54H157.933C159.037 54 159.997 53.592 160.813 52.776C161.629 51.96 162.037 51 162.037 49.896V4.104C162.037 3 161.629 2.04 160.813 1.224C159.997 0.408 159.037 0 157.933 0H153.901C152.797 0 151.837 0.408 151.021 1.224C150.205 2.04 149.797 3 149.797 4.104V49.896C149.797 51 150.205 51.96 151.021 52.776ZM175.757 49.824C179.069 53.088 183.821 54.72 190.013 54.72C192.509 54.72 195.077 54.504 197.717 54.072C198.869 53.88 199.829 53.328 200.597 52.416C201.365 51.456 201.749 50.376 201.749 49.176V48.456C201.749 47.448 201.341 46.632 200.525 46.008C199.757 45.384 198.869 45.192 197.861 45.432C196.085 45.816 194.069 46.008 191.813 46.008C188.789 46.008 186.557 45.192 185.117 43.56C183.725 41.88 183.029 39.12 183.029 35.28C183.029 31.536 183.677 28.824 184.973 27.144C186.317 25.416 188.357 24.552 191.093 24.552C193.205 24.552 195.245 24.72 197.213 25.056C198.221 25.248 199.133 25.032 199.949 24.408C200.765 23.784 201.173 22.968 201.173 21.96V21.24C201.173 20.04 200.789 19.008 200.021 18.144C199.301 17.232 198.341 16.68 197.141 16.488C193.877 16.056 191.261 15.84 189.293 15.84C183.341 15.84 178.757 17.52 175.541 20.88C172.373 24.192 170.789 28.992 170.789 35.28C170.789 41.712 172.445 46.56 175.757 49.824ZM126.997 45.14C125.893 46.292 124.261 46.868 122.101 46.868C118.069 46.868 115.957 44.396 115.765 39.452C115.765 39.02 115.981 38.804 116.413 38.804L128.581 38.804C128.917 38.804 129.085 38.996 129.085 39.38C128.797 42.116 128.101 44.036 126.997 45.14ZM135.421 20.804C131.869 17.492 126.829 15.836 120.301 15.836C117.325 15.836 114.445 16.1 111.661 16.628C110.509 16.82 109.573 17.396 108.853 18.356C108.085 19.364 107.701 20.468 107.701 21.668V21.812C107.701 22.82 108.109 23.636 108.925 24.26C109.693 24.884 110.581 25.076 111.589 24.836C114.085 24.212 116.413 23.9 118.573 23.9C121.885 23.9 124.381 24.452 126.061 25.556C127.693 26.708 128.701 28.604 129.085 31.244C129.181 31.676 128.989 31.892 128.509 31.892L109.285 31.892C108.133 31.892 107.125 32.276 106.261 33.044C105.349 33.86 104.893 34.844 104.893 35.996C105.085 48.476 110.893 54.716 122.317 54.716C128.269 54.716 132.829 53.036 135.997 49.676C139.117 46.364 140.677 41.564 140.677 35.276C140.677 28.94 138.925 24.116 135.421 20.804Z" fill="#232323"/>
</svg>
