<svg width="216" height="54" viewBox="0 0 216 54" fill="none" xmlns="http://www.w3.org/2000/svg">
<g clip-path="url(#clip0)">
<path fill-rule="evenodd" clip-rule="evenodd" d="M-0.437744 0.408508H15.8888V52H-0.437744V0.408508ZM15.8889 0.408511L41.844 0.408508V14.642L15.8889 14.642V0.408511ZM41.844 37.7666L15.8889 37.7666V52H41.844V37.7666ZM15.8889 32.1V20.6946L39.7508 20.6946V32.1L15.8889 32.1ZM60.4489 0.408508H46.4489V52H60.4489V0.408508ZM92.0455 28.93H105.647C104.176 19.1032 95.6999 11.5671 85.4634 11.5671C74.1915 11.5671 65.0539 20.7047 65.0539 31.9766C65.0539 43.2484 74.1915 52.3861 85.4634 52.3861C95.4956 52.3861 103.837 45.1478 105.551 35.6087H92.0322C91.5474 38.1978 89.2753 40.1571 86.5455 40.1571C83.4626 40.1571 80.9633 37.6579 80.9633 34.5749V29.8899C80.9633 26.8069 83.4626 24.3077 86.5455 24.3077C89.3012 24.3077 91.5905 26.3044 92.0455 28.93ZM137.105 51.9451H152.153C151.241 50.0047 150.785 47.9112 150.785 45.6645V24.1419C150.785 15.7167 144.473 11.504 131.849 11.504C125.177 11.504 120.281 12.704 117.161 15.1039C114.041 17.4528 112.385 21.1292 112.193 26.1333H127.169C127.265 24.6525 127.649 23.6312 128.321 23.0696C129.041 22.5079 130.145 22.227 131.633 22.227C134.417 22.227 135.809 23.1972 135.809 25.1376C135.809 26.0567 135.449 26.746 134.729 27.2056C134.057 27.6651 132.929 27.9715 131.345 28.1247L124.577 28.814C119.681 29.3247 116.081 30.6012 113.777 32.6437C111.521 34.6351 110.393 37.4435 110.393 41.0689C110.393 45.0007 111.617 48.0133 114.065 50.1068C116.513 52.2004 119.849 53.2472 124.073 53.2472C129.881 53.2472 133.865 51.2813 136.025 47.3495C136.073 49.0345 136.433 50.5664 137.105 51.9451ZM135.809 34.2521V36.8563C135.809 41.1455 133.865 43.2901 129.977 43.2901C127.049 43.2901 125.585 42.1157 125.585 39.7668C125.585 37.7754 126.761 36.6265 129.113 36.3201L132.569 35.8606C134.249 35.6563 135.329 35.1202 135.809 34.2521ZM156.758 0.408508H170.758V52H156.758V0.408508ZM215.957 28.93H202.355C201.9 26.3044 199.611 24.3077 196.855 24.3077C193.772 24.3077 191.273 26.8069 191.273 29.8899V34.5749C191.273 37.6579 193.772 40.1571 196.855 40.1571C199.585 40.1571 201.857 38.1978 202.342 35.6087H215.86C214.147 45.1478 205.805 52.3861 195.773 52.3861C184.501 52.3861 175.363 43.2484 175.363 31.9766C175.363 20.7047 184.501 11.5671 195.773 11.5671C206.01 11.5671 214.486 19.1032 215.957 28.93Z" fill="#252323"/>
</g>
<defs>
<clipPath id="clip0">
<rect width="216" height="54" fill="white"/>
</clipPath>
</defs>
</svg>
