<svg width="24" height="24" viewBox="0 0 121 121" fill="none" xmlns="http://www.w3.org/2000/svg">
    <path fill-rule="evenodd" clip-rule="evenodd" d="M60.4625 10.9854C88.084 10.9854 110.476 33.3771 110.476 60.9988C110.476 88.6203 88.084 111.012 60.4625 111.012C32.8409 111.012 10.4491 88.6203 10.4491 60.9988C10.4491 33.3771 32.8409 10.9854 60.4625 10.9854ZM60.4625 19.8113C83.2095 19.8113 101.65 38.2515 101.65 60.9988C101.65 83.7458 83.2095 102.186 60.4625 102.186C37.7153 102.186 19.275 83.7458 19.275 60.9988C19.275 38.2515 37.7153 19.8113 60.4625 19.8113Z" fill="#252323"/>
    <path d="M43.868 84.6788C43.868 87.1161 41.8923 89.0918 39.4551 89.0918C37.0179 89.0918 35.0421 87.1161 35.0421 84.6788V22.5777C35.0421 20.1405 37.0179 18.1648 39.4551 18.1648C41.8923 18.1648 43.868 20.1405 43.868 22.5777V84.6788Z" fill="#252323"/>
    <path d="M86.7309 97.9798C86.7309 100.417 84.7552 102.393 82.318 102.393C79.8808 102.393 77.905 100.417 77.905 97.9798V62.0454C77.905 59.6082 79.8808 57.6325 82.318 57.6325C84.7552 57.6325 86.7309 59.6082 86.7309 62.0454V97.9798Z" fill="#252323"/>
    <path d="M86.7309 38.7565C86.7309 41.1937 84.7552 43.1695 82.318 43.1695C79.8808 43.1695 77.905 41.1937 77.905 38.7565V22.5778C77.905 20.1406 79.8808 18.1649 82.318 18.1649C84.7552 18.1649 86.7309 20.1406 86.7309 22.5778V38.7565Z" fill="#252323"/>
    <path d="M57.5799 44.6404C57.5799 47.0776 55.6042 49.0534 53.167 49.0534C50.7298 49.0534 48.754 47.0776 48.754 44.6404V32.8726C48.754 30.4354 50.7298 28.4596 53.167 28.4596C55.6042 28.4596 57.5799 30.4354 57.5799 32.8726V44.6404Z" fill="#252323"/>
    <path d="M57.5799 67.6013C57.5799 70.0385 55.6042 72.0143 53.167 72.0143C50.7298 72.0143 48.754 70.0385 48.754 67.6013V55.8335C48.754 53.3963 50.7298 51.4205 53.167 51.4205C55.6042 51.4205 57.5799 53.3963 57.5799 55.8335V67.6013Z" fill="#252323"/>
    <path d="M57.5799 91.2813C57.5799 93.7185 55.6042 95.6943 53.167 95.6943C50.7298 95.6943 48.754 93.7185 48.754 91.2813V79.5135C48.754 77.0763 50.7298 75.1005 53.167 75.1005C55.6042 75.1005 57.5799 77.0763 57.5799 79.5135V91.2813Z" fill="#252323"/>
    <path d="M55.7 56.8379C53.2628 56.8379 51.287 58.8136 51.287 61.2508C51.287 63.688 53.2628 65.6638 55.7 65.6638H82.3179C84.7551 65.6638 86.7309 63.688 86.7309 61.2508C86.7309 58.8136 84.7551 56.8379 82.3179 56.8379H55.7Z" fill="#252323"/>
    <path d="M55.7 56.8379C53.2628 56.8379 51.287 58.8136 51.287 61.2508C51.287 63.688 53.2628 65.6638 55.7 65.6638H82.3179C84.7551 65.6638 86.7309 63.688 86.7309 61.2508C86.7309 58.8136 84.7551 56.8379 82.3179 56.8379H55.7Z" fill="#252323"/>
    <path d="M55.7 56.8379C53.2628 56.8379 51.287 58.8136 51.287 61.2508C51.287 63.688 53.2628 65.6638 55.7 65.6638H82.3179C84.7551 65.6638 86.7309 63.688 86.7309 61.2508C86.7309 58.8136 84.7551 56.8379 82.3179 56.8379H55.7Z" fill="#252323"/>
    <path d="M82.3181 34.3436C84.7553 34.3436 86.731 36.3193 86.731 38.7565C86.731 41.1937 84.7553 43.1695 82.3181 43.1695L57.5801 43.1695C55.1429 43.1695 53.1671 41.1937 53.1671 38.7565C53.1671 36.3193 55.1429 34.3436 57.5801 34.3436L82.3181 34.3436Z" fill="#252323"/>
    <path d="M82.3181 34.3436C84.7553 34.3436 86.731 36.3193 86.731 38.7565C86.731 41.1937 84.7553 43.1695 82.3181 43.1695L57.5801 43.1695C55.1429 43.1695 53.1671 41.1937 53.1671 38.7565C53.1671 36.3193 55.1429 34.3436 57.5801 34.3436L82.3181 34.3436Z" fill="#252323"/>
    <path d="M82.3181 34.3436C84.7553 34.3436 86.731 36.3193 86.731 38.7565C86.731 41.1937 84.7553 43.1695 82.3181 43.1695L57.5801 43.1695C55.1429 43.1695 53.1671 41.1937 53.1671 38.7565C53.1671 36.3193 55.1429 34.3436 57.5801 34.3436L82.3181 34.3436Z" fill="#252323"/>
    <path d="M79.6656 80.9849C82.1028 80.9849 84.0785 82.9606 84.0785 85.3978C84.0785 87.835 82.1028 89.8108 79.6656 89.8108L55.6999 89.8108C53.2627 89.8108 51.287 87.835 51.287 85.3978C51.287 82.9606 53.2627 80.9849 55.6999 80.9849L79.6656 80.9849Z" fill="#252323"/>
    <path d="M79.6656 80.9849C82.1028 80.9849 84.0785 82.9606 84.0785 85.3978C84.0785 87.835 82.1028 89.8108 79.6656 89.8108L55.6999 89.8108C53.2627 89.8108 51.287 87.835 51.287 85.3978C51.287 82.9606 53.2627 80.9849 55.6999 80.9849L79.6656 80.9849Z" fill="#252323"/>
    <path d="M79.6656 80.9849C82.1028 80.9849 84.0785 82.9606 84.0785 85.3978C84.0785 87.835 82.1028 89.8108 79.6656 89.8108L55.6999 89.8108C53.2627 89.8108 51.287 87.835 51.287 85.3978C51.287 82.9606 53.2627 80.9849 55.6999 80.9849L79.6656 80.9849Z" fill="#252323"/>
    <path d="M66.1467 70.8716L66.1467 70.8716C67.3489 72.9823 70.0231 73.6987 72.1195 72.4719L84.6365 65.1469C86.733 63.92 87.4579 61.2144 86.2556 59.1037L86.2556 59.1037C85.0534 56.993 82.3793 56.2766 80.2828 57.5034L67.7658 64.8284C65.6693 66.0553 64.9444 68.7609 66.1467 70.8716Z" fill="#252323"/>
    <path d="M66.1467 70.8716L66.1467 70.8716C67.3489 72.9823 70.0231 73.6987 72.1195 72.4719L84.6365 65.1469C86.733 63.92 87.4579 61.2144 86.2556 59.1037L86.2556 59.1037C85.0534 56.993 82.3793 56.2766 80.2828 57.5034L67.7658 64.8284C65.6693 66.0553 64.9444 68.7609 66.1467 70.8716Z" fill="#252323"/>
    <path d="M66.1467 70.8716L66.1467 70.8716C67.3489 72.9823 70.0231 73.6987 72.1195 72.4719L84.6365 65.1469C86.733 63.92 87.4579 61.2144 86.2556 59.1037L86.2556 59.1037C85.0534 56.993 82.3793 56.2766 80.2828 57.5034L67.7658 64.8284C65.6693 66.0553 64.9444 68.7609 66.1467 70.8716Z" fill="#252323"/>
    <path d="M86.2557 63.5165L86.2557 63.5165C87.4579 61.4058 86.733 58.7002 84.6365 57.4733L72.1196 50.1483C70.0231 48.9215 67.349 49.638 66.1467 51.7486L66.1467 51.7487C64.9444 53.8593 65.6694 56.565 67.7658 57.7918L80.2828 65.1168C82.3793 66.3437 85.0534 65.6272 86.2557 63.5165Z" fill="#252323"/>
    <path d="M86.2557 63.5165L86.2557 63.5165C87.4579 61.4058 86.733 58.7002 84.6365 57.4733L72.1196 50.1483C70.0231 48.9215 67.349 49.638 66.1467 51.7486L66.1467 51.7487C64.9444 53.8593 65.6694 56.565 67.7658 57.7918L80.2828 65.1168C82.3793 66.3437 85.0534 65.6272 86.2557 63.5165Z" fill="#252323"/>
    <path d="M86.2557 63.5165L86.2557 63.5165C87.4579 61.4058 86.733 58.7002 84.6365 57.4733L72.1196 50.1483C70.0231 48.9215 67.349 49.638 66.1467 51.7486L66.1467 51.7487C64.9444 53.8593 65.6694 56.565 67.7658 57.7918L80.2828 65.1168C82.3793 66.3437 85.0534 65.6272 86.2557 63.5165Z" fill="#252323"/>
    <path d="M22.1385 80.2658C19.7013 80.2658 17.7255 82.2418 17.7255 84.6788C17.7255 87.1158 19.7013 89.0918 22.1385 89.0918H39.455C41.8923 89.0918 43.868 87.1158 43.868 84.6788C43.868 82.2418 41.8923 80.2658 39.4551 80.2658H22.1385Z" fill="#252323"/>
</svg>