<svg width="24" height="24" viewBox="0 0 121 120" fill="none" xmlns="http://www.w3.org/2000/svg">
    <path fill-rule="evenodd" clip-rule="evenodd" d="M108.048 17.5C108.048 14.7386 105.809 12.5 103.048 12.5H18.0477C15.2863 12.5 13.0477 14.7385 13.0477 17.5V102.5C13.0477 105.261 15.2863 107.5 18.0477 107.5H103.048C105.809 107.5 108.048 105.261 108.048 102.5V17.5ZM100.923 24.625C100.923 21.8636 98.6842 19.625 95.9227 19.625H25.1727C22.4113 19.625 20.1727 21.8636 20.1727 24.625V95.375C20.1727 98.1365 22.4113 100.375 25.1727 100.375H95.9227C98.6842 100.375 100.923 98.1365 100.923 95.375V24.625Z" fill="#252323"/>
    <path fill-rule="evenodd" clip-rule="evenodd" d="M45.4211 44.6277C40.4643 45.521 35.9801 48.6151 33.3815 51.219C32.8938 51.7075 32.1024 51.7085 31.6137 51.221C31.1251 50.733 31.1243 49.9416 31.6119 49.453C34.4443 46.615 39.3664 43.1787 44.9777 42.1673C47.8044 41.6579 50.8247 41.7616 53.8257 42.8908C56.8287 44.021 59.7362 46.1498 62.3772 49.5723C64.7727 52.6765 67.2232 54.3185 69.5662 55.0235C71.9097 55.729 74.2672 55.5345 76.5392 54.753C81.1402 53.1715 85.2357 49.2322 87.5912 46.0248C87.9997 45.4684 88.7822 45.3486 89.3387 45.7572C89.8952 46.1659 90.0147 46.9482 89.6062 47.5046C87.0907 50.9295 82.6197 55.3065 77.3522 57.1175C74.6902 58.0325 71.7882 58.3035 68.8457 57.4175C65.9027 56.5315 63.0417 54.5255 60.3977 51.0995C57.9997 47.9918 55.4552 46.1752 52.9452 45.2306C50.4325 44.2851 47.8785 44.1848 45.4211 44.6277ZM45.4211 64.7935C40.4643 65.687 35.9801 68.781 33.3815 71.385C32.8938 71.8735 32.1024 71.8745 31.6137 71.387C31.1251 70.899 31.1243 70.1075 31.6119 69.619C34.4443 66.781 39.3664 63.3445 44.9777 62.3335C47.8044 61.824 50.8247 61.9275 53.8257 63.057C56.1787 63.9425 58.4732 65.441 60.6267 67.695L66.4792 61.8425C66.9677 61.3545 67.7592 61.3545 68.2472 61.8425C68.7352 62.331 68.7352 63.1225 68.2472 63.6105L62.2642 69.5935C62.3022 69.6415 62.3397 69.6895 62.3772 69.7385C64.7727 72.8425 67.2232 74.4845 69.5662 75.1895C71.9097 75.895 74.2672 75.7005 76.5392 74.919C81.1402 73.3375 85.2357 69.398 87.5912 66.191C87.9997 65.6345 88.7822 65.5145 89.3387 65.923C89.8952 66.332 90.0147 67.114 89.6062 67.6705C87.0907 71.0955 82.6197 75.4725 77.3522 77.2835C74.6902 78.1985 71.7882 78.4695 68.8457 77.5835C65.9342 76.707 63.1027 74.7345 60.4827 71.375L54.6162 77.2415C54.1277 77.73 53.3362 77.73 52.8482 77.2415C52.3602 76.7535 52.3602 75.962 52.8482 75.474L58.8587 69.4635C56.9252 67.4285 54.9242 66.1415 52.9452 65.3965C50.4325 64.451 47.8785 64.351 45.4211 64.7935Z" fill="#252323"/>
</svg>